<svg width="70" height="70" viewBox="0 0 70 70" fill="none" xmlns="http://www.w3.org/2000/svg">
<rect width="70" height="70" rx="7" fill="#FFCD00"/>
<path fill-rule="evenodd" clip-rule="evenodd" d="M21 17.78H49C49.5523 17.78 50 18.2277 50 18.78V51.119C50 51.6713 49.5523 52.119 49 52.119H21C20.4477 52.119 20 51.6713 20 51.119V18.78C20 18.2277 20.4477 17.78 21 17.78ZM19 18.78C19 17.6755 19.8954 16.78 21 16.78H49C50.1046 16.78 51 17.6755 51 18.78V51.119C51 52.2236 50.1046 53.119 49 53.119H21C19.8954 53.119 19 52.2236 19 51.119V18.78ZM32.1017 26.2717C32.1017 28.5651 30.2426 30.4243 27.9492 30.4243C25.6558 30.4243 23.7966 28.5651 23.7966 26.2717C23.7966 23.9783 25.6558 22.1192 27.9492 22.1192C30.2426 22.1192 32.1017 23.9783 32.1017 26.2717ZM33.1017 26.2717C33.1017 29.1174 30.7949 31.4243 27.9492 31.4243C25.1035 31.4243 22.7966 29.1174 22.7966 26.2717C22.7966 23.426 25.1035 21.1192 27.9492 21.1192C30.7949 21.1192 33.1017 23.426 33.1017 26.2717ZM41.7797 28.797C43.0247 28.797 44.0339 27.7878 44.0339 26.5428C44.0339 25.2978 43.0247 24.2886 41.7797 24.2886C40.5347 24.2886 39.5255 25.2978 39.5255 26.5428C39.5255 27.7878 40.5347 28.797 41.7797 28.797ZM41.7797 29.797C43.577 29.797 45.0339 28.3401 45.0339 26.5428C45.0339 24.7455 43.577 23.2886 41.7797 23.2886C39.9824 23.2886 38.5255 24.7455 38.5255 26.5428C38.5255 28.3401 39.9824 29.797 41.7797 29.797ZM29.9322 41.1868C29.9322 42.4318 28.923 43.4411 27.678 43.4411C26.433 43.4411 25.4238 42.4318 25.4238 41.1868C25.4238 39.9418 26.433 38.9326 27.678 38.9326C28.923 38.9326 29.9322 39.9418 29.9322 41.1868ZM30.9322 41.1868C30.9322 42.9841 29.4753 44.4411 27.678 44.4411C25.8807 44.4411 24.4238 42.9841 24.4238 41.1868C24.4238 39.3896 25.8807 37.9326 27.678 37.9326C29.4753 37.9326 30.9322 39.3896 30.9322 41.1868ZM42.0509 44.5259C44.3443 44.5259 46.2034 42.6667 46.2034 40.3733C46.2034 38.0799 44.3443 36.2208 42.0509 36.2208C39.7575 36.2208 37.8983 38.0799 37.8983 40.3733C37.8983 42.6667 39.7575 44.5259 42.0509 44.5259ZM42.0509 45.5259C44.8966 45.5259 47.2034 43.219 47.2034 40.3733C47.2034 37.5276 44.8966 35.2208 42.0509 35.2208C39.2052 35.2208 36.8983 37.5276 36.8983 40.3733C36.8983 43.219 39.2052 45.5259 42.0509 45.5259ZM30.9323 48.78H26.5933V50.4071H30.9323V48.78ZM32.5593 48.7799H36.8983V50.407H32.5593V48.7799ZM42.8645 48.7799H38.5255V50.407H42.8645V48.7799Z" fill="#0048BB"/>
<path d="M26.5933 48.78V48.53H26.3433V48.78H26.5933ZM30.9323 48.78H31.1823V48.53H30.9323V48.78ZM26.5933 50.4071H26.3433V50.6571H26.5933V50.4071ZM30.9323 50.4071V50.6571H31.1823V50.4071H30.9323ZM36.8983 48.7799H37.1483V48.5299H36.8983V48.7799ZM32.5593 48.7799V48.5299H32.3093V48.7799H32.5593ZM36.8983 50.407V50.657H37.1483V50.407H36.8983ZM32.5593 50.407H32.3093V50.657H32.5593V50.407ZM38.5255 48.7799V48.5299H38.2755V48.7799H38.5255ZM42.8645 48.7799H43.1145V48.5299H42.8645V48.7799ZM38.5255 50.407H38.2755V50.657H38.5255V50.407ZM42.8645 50.407V50.657H43.1145V50.407H42.8645ZM49 17.53H21V18.03H49V17.53ZM50.25 18.78C50.25 18.0897 49.6904 17.53 49 17.53V18.03C49.4142 18.03 49.75 18.3658 49.75 18.78H50.25ZM50.25 51.119V18.78H49.75V51.119H50.25ZM49 52.369C49.6904 52.369 50.25 51.8094 50.25 51.119H49.75C49.75 51.5332 49.4142 51.869 49 51.869V52.369ZM21 52.369H49V51.869H21V52.369ZM19.75 51.119C19.75 51.8094 20.3096 52.369 21 52.369V51.869C20.5858 51.869 20.25 51.5332 20.25 51.119H19.75ZM19.75 18.78V51.119H20.25V18.78H19.75ZM21 17.53C20.3096 17.53 19.75 18.0897 19.75 18.78H20.25C20.25 18.3658 20.5858 18.03 21 18.03V17.53ZM21 16.53C19.7574 16.53 18.75 17.5374 18.75 18.78H19.25C19.25 17.8135 20.0335 17.03 21 17.03V16.53ZM49 16.53H21V17.03H49V16.53ZM51.25 18.78C51.25 17.5374 50.2426 16.53 49 16.53V17.03C49.9665 17.03 50.75 17.8135 50.75 18.78H51.25ZM51.25 51.119V18.78H50.75V51.119H51.25ZM49 53.369C50.2426 53.369 51.25 52.3617 51.25 51.119H50.75C50.75 52.0855 49.9665 52.869 49 52.869V53.369ZM21 53.369H49V52.869H21V53.369ZM18.75 51.119C18.75 52.3617 19.7574 53.369 21 53.369V52.869C20.0335 52.869 19.25 52.0855 19.25 51.119H18.75ZM18.75 18.78V51.119H19.25V18.78H18.75ZM27.9492 30.6743C30.3806 30.6743 32.3517 28.7032 32.3517 26.2717H31.8517C31.8517 28.427 30.1045 30.1743 27.9492 30.1743V30.6743ZM23.5466 26.2717C23.5466 28.7032 25.5177 30.6743 27.9492 30.6743V30.1743C25.7939 30.1743 24.0466 28.427 24.0466 26.2717H23.5466ZM27.9492 21.8692C25.5177 21.8692 23.5466 23.8403 23.5466 26.2717H24.0466C24.0466 24.1164 25.7939 22.3692 27.9492 22.3692V21.8692ZM32.3517 26.2717C32.3517 23.8403 30.3806 21.8692 27.9492 21.8692V22.3692C30.1045 22.3692 31.8517 24.1164 31.8517 26.2717H32.3517ZM27.9492 31.6743C30.9329 31.6743 33.3517 29.2555 33.3517 26.2717H32.8517C32.8517 28.9793 30.6568 31.1743 27.9492 31.1743V31.6743ZM22.5466 26.2717C22.5466 29.2555 24.9654 31.6743 27.9492 31.6743V31.1743C25.2416 31.1743 23.0466 28.9793 23.0466 26.2717H22.5466ZM27.9492 20.8692C24.9654 20.8692 22.5466 23.288 22.5466 26.2717H23.0466C23.0466 23.5641 25.2416 21.3692 27.9492 21.3692V20.8692ZM33.3517 26.2717C33.3517 23.288 30.9329 20.8692 27.9492 20.8692V21.3692C30.6568 21.3692 32.8517 23.5641 32.8517 26.2717H33.3517ZM43.7839 26.5428C43.7839 27.6497 42.8866 28.547 41.7797 28.547V29.047C43.1627 29.047 44.2839 27.9259 44.2839 26.5428H43.7839ZM41.7797 24.5386C42.8866 24.5386 43.7839 25.4359 43.7839 26.5428H44.2839C44.2839 25.1598 43.1627 24.0386 41.7797 24.0386V24.5386ZM39.7755 26.5428C39.7755 25.4359 40.6728 24.5386 41.7797 24.5386V24.0386C40.3966 24.0386 39.2755 25.1598 39.2755 26.5428H39.7755ZM41.7797 28.547C40.6728 28.547 39.7755 27.6497 39.7755 26.5428H39.2755C39.2755 27.9259 40.3966 29.047 41.7797 29.047V28.547ZM44.7839 26.5428C44.7839 28.202 43.4389 29.547 41.7797 29.547V30.047C43.715 30.047 45.2839 28.4781 45.2839 26.5428H44.7839ZM41.7797 23.5386C43.4389 23.5386 44.7839 24.8836 44.7839 26.5428H45.2839C45.2839 24.6075 43.715 23.0386 41.7797 23.0386V23.5386ZM38.7755 26.5428C38.7755 24.8836 40.1205 23.5386 41.7797 23.5386V23.0386C39.8444 23.0386 38.2755 24.6075 38.2755 26.5428H38.7755ZM41.7797 29.547C40.1205 29.547 38.7755 28.202 38.7755 26.5428H38.2755C38.2755 28.4781 39.8444 30.047 41.7797 30.047V29.547ZM27.678 43.6911C29.061 43.6911 30.1822 42.5699 30.1822 41.1868H29.6822C29.6822 42.2937 28.7849 43.1911 27.678 43.1911V43.6911ZM25.1738 41.1868C25.1738 42.5699 26.2949 43.6911 27.678 43.6911V43.1911C26.5711 43.1911 25.6738 42.2937 25.6738 41.1868H25.1738ZM27.678 38.6826C26.2949 38.6826 25.1738 39.8038 25.1738 41.1868H25.6738C25.6738 40.0799 26.5711 39.1826 27.678 39.1826V38.6826ZM30.1822 41.1868C30.1822 39.8038 29.061 38.6826 27.678 38.6826V39.1826C28.7849 39.1826 29.6822 40.0799 29.6822 41.1868H30.1822ZM27.678 44.6911C29.6133 44.6911 31.1822 43.1222 31.1822 41.1868H30.6822C30.6822 42.846 29.3372 44.1911 27.678 44.1911V44.6911ZM24.1738 41.1868C24.1738 43.1222 25.7427 44.6911 27.678 44.6911V44.1911C26.0188 44.1911 24.6738 42.846 24.6738 41.1868H24.1738ZM27.678 37.6826C25.7427 37.6826 24.1738 39.2515 24.1738 41.1868H24.6738C24.6738 39.5276 26.0188 38.1826 27.678 38.1826V37.6826ZM31.1822 41.1868C31.1822 39.2515 29.6133 37.6826 27.678 37.6826V38.1826C29.3372 38.1826 30.6822 39.5276 30.6822 41.1868H31.1822ZM45.9534 40.3733C45.9534 42.5286 44.2062 44.2759 42.0509 44.2759V44.7759C44.4823 44.7759 46.4534 42.8048 46.4534 40.3733H45.9534ZM42.0509 36.4708C44.2062 36.4708 45.9534 38.218 45.9534 40.3733H46.4534C46.4534 37.9419 44.4823 35.9708 42.0509 35.9708V36.4708ZM38.1483 40.3733C38.1483 38.218 39.8956 36.4708 42.0509 36.4708V35.9708C39.6194 35.9708 37.6483 37.9419 37.6483 40.3733H38.1483ZM42.0509 44.2759C39.8956 44.2759 38.1483 42.5286 38.1483 40.3733H37.6483C37.6483 42.8048 39.6194 44.7759 42.0509 44.7759V44.2759ZM46.9534 40.3733C46.9534 43.0809 44.7585 45.2759 42.0509 45.2759V45.7759C45.0346 45.7759 47.4534 43.3571 47.4534 40.3733H46.9534ZM42.0509 35.4708C44.7585 35.4708 46.9534 37.6657 46.9534 40.3733H47.4534C47.4534 37.3896 45.0346 34.9708 42.0509 34.9708V35.4708ZM37.1483 40.3733C37.1483 37.6657 39.3433 35.4708 42.0509 35.4708V34.9708C39.0671 34.9708 36.6483 37.3896 36.6483 40.3733H37.1483ZM42.0509 45.2759C39.3433 45.2759 37.1483 43.0809 37.1483 40.3733H36.6483C36.6483 43.3571 39.0671 45.7759 42.0509 45.7759V45.2759ZM26.5933 49.03H30.9323V48.53H26.5933V49.03ZM26.8433 50.4071V48.78H26.3433V50.4071H26.8433ZM30.9323 50.1571H26.5933V50.6571H30.9323V50.1571ZM30.6823 48.78V50.4071H31.1823V48.78H30.6823ZM36.8983 48.5299H32.5593V49.0299H36.8983V48.5299ZM37.1483 50.407V48.7799H36.6483V50.407H37.1483ZM32.5593 50.657H36.8983V50.157H32.5593V50.657ZM32.3093 48.7799V50.407H32.8093V48.7799H32.3093ZM38.5255 49.0299H42.8645V48.5299H38.5255V49.0299ZM38.7755 50.407V48.7799H38.2755V50.407H38.7755ZM42.8645 50.157H38.5255V50.657H42.8645V50.157ZM42.6145 48.7799V50.407H43.1145V48.7799H42.6145Z" fill="#0048BB"/>
</svg>
