<svg width="60" height="61" viewBox="0 0 60 61" fill="none" xmlns="http://www.w3.org/2000/svg">
<path d="M39.8997 26.5813L40.8621 26.3901L39.8997 26.5813L42.3218 38.7713L31.4769 32.7008C30.8699 32.3611 30.1301 32.3611 29.5231 32.7008L18.6782 38.7713L21.1003 26.5813C21.2359 25.8991 21.0072 25.1954 20.4966 24.7232L11.3719 16.2849L23.7138 14.8216C24.4045 14.7397 25.0031 14.3048 25.2944 13.6732L30.5 2.38751L35.7056 13.6732C35.9969 14.3048 36.5955 14.7397 37.2862 14.8216L49.6281 16.2849L40.5034 24.7232C39.9927 25.1954 39.7641 25.8991 39.8997 26.5813Z" stroke="#0048BB" stroke-width="2"/>
<path d="M29.5919 13.9687C29.9494 13.1938 31.0506 13.1938 31.4081 13.9687L33.228 17.9143C33.3737 18.2301 33.6729 18.4475 34.0183 18.4885L38.3332 19.0001C39.1806 19.1005 39.5209 20.1479 38.8944 20.7273L35.7043 23.6774C35.449 23.9135 35.3346 24.2654 35.4024 24.6065L36.2492 28.8683C36.4155 29.7052 35.5246 30.3525 34.78 29.9357L30.9884 27.8134C30.685 27.6435 30.315 27.6435 30.0116 27.8134L26.22 29.9357C25.4754 30.3525 24.5845 29.7052 24.7508 28.8683L25.5976 24.6065C25.6654 24.2654 25.551 23.9135 25.2957 23.6774L22.1056 20.7273C21.4791 20.1479 21.8194 19.1005 22.6668 19.0001L26.9817 18.4885C27.3271 18.4475 27.6263 18.2301 27.772 17.9143L29.5919 13.9687Z" fill="#0048BB"/>
<path d="M7.27299 35.2828C7.36234 35.0891 7.63766 35.0891 7.72701 35.2828L8.70053 37.3934C8.95545 37.946 9.4792 38.3266 10.0836 38.3982L12.3917 38.6719C12.6035 38.697 12.6886 38.9589 12.532 39.1037L10.8256 40.6818C10.3787 41.095 10.1787 41.7107 10.2973 42.3077L10.7503 44.5874C10.7918 44.7966 10.5691 44.9584 10.3829 44.8542L8.35477 43.719C7.8237 43.4217 7.17631 43.4217 6.64523 43.719L4.61706 44.8542C4.43091 44.9584 4.20817 44.7966 4.24975 44.5874L4.70272 42.3077C4.82134 41.7107 4.62128 41.095 4.17445 40.6818L2.468 39.1037C2.31137 38.9589 2.39645 38.697 2.6083 38.6719L4.91641 38.3982C5.5208 38.3266 6.04455 37.946 6.29947 37.3934L7.27299 35.2828Z" stroke="#FFD21F" stroke-width="1.5"/>
<path d="M19.273 48.2828C19.3623 48.0891 19.6377 48.0891 19.727 48.2828L20.7005 50.3934C20.9554 50.946 21.4792 51.3266 22.0836 51.3982L24.3917 51.6719C24.6035 51.697 24.6886 51.9589 24.532 52.1037L22.8256 53.6818C22.3787 54.095 22.1787 54.7107 22.2973 55.3077L22.7503 57.5874C22.7918 57.7966 22.5691 57.9584 22.3829 57.8542L20.3548 56.719C19.8237 56.4217 19.1763 56.4217 18.6452 56.719L16.6171 57.8542C16.4309 57.9584 16.2082 57.7966 16.2497 57.5874L16.7027 55.3077C16.8213 54.7107 16.6213 54.095 16.1744 53.6818L14.468 52.1037C14.3114 51.9589 14.3965 51.697 14.6083 51.6719L16.9164 51.3982C17.5208 51.3266 18.0445 50.946 18.2995 50.3934L19.273 48.2828Z" stroke="#FFD21F" stroke-width="1.5"/>
<path d="M37.273 48.2828C37.3623 48.0891 37.6377 48.0891 37.727 48.2828L38.7005 50.3934C38.9554 50.946 39.4792 51.3266 40.0836 51.3982L42.3917 51.6719C42.6035 51.697 42.6886 51.9589 42.532 52.1037L40.8256 53.6818C40.3787 54.095 40.1787 54.7107 40.2973 55.3077L40.7503 57.5874C40.7918 57.7966 40.5691 57.9584 40.3829 57.8542L38.3548 56.719C37.8237 56.4217 37.1763 56.4217 36.6452 56.719L34.6171 57.8542C34.4309 57.9584 34.2082 57.7966 34.2497 57.5874L34.7027 55.3077C34.8213 54.7107 34.6213 54.095 34.1744 53.6818L32.468 52.1037C32.3114 51.9589 32.3965 51.697 32.6083 51.6719L34.9164 51.3982C35.5208 51.3266 36.0445 50.946 36.2995 50.3934L37.273 48.2828Z" stroke="#FFD21F" stroke-width="1.5"/>
<path d="M52.273 35.2828C52.3623 35.0891 52.6377 35.0891 52.727 35.2828L53.7005 37.3934C53.9554 37.946 54.4792 38.3266 55.0836 38.3982L57.3917 38.6719C57.6035 38.697 57.6886 38.9589 57.532 39.1037L55.8256 40.6818C55.3787 41.095 55.1787 41.7107 55.2973 42.3077L55.7503 44.5874C55.7918 44.7966 55.5691 44.9584 55.3829 44.8542L53.3548 43.719C52.8237 43.4217 52.1763 43.4217 51.6452 43.719L49.6171 44.8542C49.4309 44.9584 49.2082 44.7966 49.2497 44.5874L49.7027 42.3077C49.8213 41.7107 49.6213 41.095 49.1744 40.6818L47.468 39.1037C47.3114 38.9589 47.3965 38.697 47.6083 38.6719L49.9164 38.3982C50.5208 38.3266 51.0445 37.946 51.2995 37.3934L52.273 35.2828Z" stroke="#FFD21F" stroke-width="1.5"/>
</svg>
