<svg width="70" height="70" viewBox="0 0 70 70" fill="none" xmlns="http://www.w3.org/2000/svg">
<rect width="70" height="70" rx="7" fill="#FFCD00"/>
<path d="M19.7628 14.5104C18.5646 14.8481 17.6234 15.8052 17.3016 17.0119C17.221 17.3013 17.1891 18.0657 17.1891 19.8112V22.2081L17.3903 22.4013L17.5835 22.6025H33.622C48.784 22.6025 49.6765 22.5945 49.8374 22.4576C49.934 22.3854 50.0306 22.1922 50.0545 22.0313C50.0948 21.7982 50.0625 21.7016 49.9016 21.5084L49.7004 21.2753L34.1201 21.2514L18.5482 21.2354L18.5726 19.2408C18.5965 17.3828 18.6049 17.2299 18.7737 16.9325C18.9749 16.5545 19.3689 16.1685 19.7633 15.9594C20.0367 15.8145 20.5676 15.8065 35.0055 15.8065H49.9663L50.288 15.9833C50.666 16.1845 51.052 16.5785 51.2612 16.9728C51.4061 17.2463 51.414 17.8095 51.414 33.6229V49.9899L51.2372 50.3196C50.8832 50.979 50.0709 51.4779 49.3472 51.4779C49.2103 51.4779 49.0335 51.5586 48.9209 51.6791C48.7277 51.8639 48.7197 51.9042 48.7197 53.0466V54.213H35.0051H21.2912V53.5292V52.8455H34.0882H46.8852L47.1183 52.6124C47.44 52.2906 47.4081 51.8643 47.0376 51.5829C46.941 51.5023 43.949 51.4863 33.6695 51.4784C18.9501 51.4784 19.9073 51.5107 19.2719 50.9395C19.095 50.7786 18.8695 50.4972 18.7733 50.32L18.5965 49.9903L18.5562 37.1853L18.5159 24.3804L18.347 24.2036C18.0896 23.9541 17.607 23.9705 17.3739 24.2519L17.1891 24.461V37.1446C17.1891 47.4724 17.213 49.9017 17.3016 50.2314C17.6074 51.3738 18.4436 52.2743 19.5537 52.6523L19.9237 52.7812V53.9475V55.1139L20.1568 55.347L20.3899 55.5801H35.0046H49.6202L49.8533 55.347L50.0864 55.1139V53.9475V52.7812L50.4564 52.6523C51.6068 52.2583 52.4834 51.2847 52.7328 50.1104C52.8051 49.7807 52.8215 45.6303 52.8051 33.3398L52.7811 17.0115L52.5237 16.4646C52.1696 15.7166 51.5665 15.1051 50.8185 14.7355L50.2154 14.4377L35.1743 14.4218C23.2778 14.4138 20.0526 14.4302 19.7628 14.5104Z" fill="#0048BB"/>
<path d="M41.2551 17.3013C40.7725 17.5428 40.5633 17.8645 40.531 18.4597C40.5071 18.862 40.531 18.9826 40.6919 19.2157C40.9733 19.626 41.2631 19.8028 41.7133 19.8511C42.2198 19.8994 42.5256 19.7789 42.8717 19.3845C43.4832 18.7087 43.2576 17.6713 42.413 17.2854C41.9787 17.0926 41.6814 17.0926 41.2551 17.3013Z" fill="#0048BB"/>
<path d="M46.7243 17.3013C45.8394 17.7436 45.7268 18.9986 46.5232 19.6017C47.1746 20.1002 48.196 19.8591 48.5501 19.1191C48.7513 18.7008 48.7592 18.4353 48.5904 18.0334C48.2607 17.2371 47.4808 16.9313 46.7243 17.3013Z" fill="#0048BB"/>
<path d="M21.5323 18.0173C21.1866 18.363 21.2589 18.9023 21.6931 19.1194C21.846 19.2001 22.6264 19.224 24.7659 19.224H27.6294L27.8789 19.0148C28.2006 18.7494 28.225 18.347 27.9272 18.0577L27.734 17.8565H24.7096C21.8141 17.8565 21.6852 17.8645 21.5323 18.0173Z" fill="#0048BB"/>
<path d="M21.6129 24.0418C21.1707 24.1384 20.6881 24.4198 20.4147 24.7495C19.8918 25.385 19.9161 24.629 19.9401 37.2008L19.964 48.6223L20.1408 48.952C20.3823 49.4106 20.9212 49.8449 21.4038 49.9898C22.0069 50.1666 48.0032 50.175 48.6067 49.9898C49.0973 49.8449 49.54 49.4913 49.8294 49.0007L50.0465 48.6227L50.0704 37.2012C50.0944 24.6294 50.1187 25.3854 49.5958 24.7499C49.4589 24.5811 49.1616 24.3476 48.928 24.227L48.5177 24.0099L35.2058 24.0019C27.8869 23.9935 21.7658 24.0095 21.6129 24.0418ZM48.4858 25.5702L48.679 25.7231L48.7029 36.9837L48.7189 48.2527L48.5257 48.4778L48.3329 48.7029H35.005H21.6772L21.484 48.4778L21.2908 48.2527L21.3067 36.9837L21.3307 25.7231L21.5239 25.5702C21.7091 25.4173 22.0388 25.4173 35.0046 25.4173C47.9713 25.4173 48.301 25.4173 48.4858 25.5702Z" fill="#0048BB"/>
<path d="M30.2595 35.1017C28.6106 35.4235 27.2515 36.1715 26.1091 37.3781C23.6882 39.9519 23.3581 43.7886 25.3207 46.7248C25.763 47.3926 26.141 47.5052 26.5837 47.1108C26.8332 46.8777 26.8168 46.4833 26.5274 46.065C24.0901 42.5017 25.868 37.6999 30.0663 36.5495C30.774 36.3483 32.391 36.3483 33.1147 36.5495C35.1739 37.1043 36.9195 38.8095 37.4986 40.8125C37.9489 42.3971 37.7158 44.2792 36.8955 45.6064C36.3567 46.4913 36.3163 46.6118 36.4453 46.9256C36.5175 47.1024 36.6381 47.2229 36.8073 47.2796C37.2013 47.4161 37.4587 47.2796 37.8367 46.7084C39.035 44.9066 39.405 42.7189 38.8662 40.6117C38.7133 40.0086 38.1421 38.778 37.7805 38.2471C36.7909 36.8149 35.158 35.6725 33.4368 35.2303C32.5762 35.0051 31.0722 34.9409 30.2595 35.1017Z" fill="#0048BB"/>
<path d="M37.6515 35.1819C37.4827 35.3268 37.4264 35.4394 37.4264 35.6725C37.4264 35.9056 37.4827 36.0182 37.6515 36.1631L37.8687 36.3558H41.6894H45.5181L45.7512 36.1227C45.8881 35.9778 45.9843 35.801 45.9843 35.6725C45.9843 35.544 45.8877 35.3667 45.7512 35.2223L45.5181 34.9892H41.6894H37.8687L37.6515 35.1819Z" fill="#0048BB"/>
<path d="M39.7187 37.9329C39.397 38.1984 39.3727 38.6003 39.6704 38.8901L39.8636 39.0913H42.7192H45.5664L45.7756 38.8418C46.049 38.5201 46.041 38.2467 45.7512 37.9569L45.5181 37.7238H42.7432H39.9682L39.7187 37.9329Z" fill="#0048BB"/>
<path d="M30.863 39.1795C29.9461 39.3563 28.9163 40.1686 28.5064 41.0296C27.3237 43.5391 29.3426 46.2821 32.0856 45.9116C33.1474 45.7751 34.1688 45.0107 34.6674 43.9973C34.9089 43.5067 34.9248 43.4341 34.9248 42.5495C34.9248 41.673 34.9089 41.5924 34.6674 41.0774C33.9916 39.6541 32.4313 38.8737 30.863 39.1795ZM32.5842 40.7641C33.252 41.1262 33.5976 41.7373 33.5976 42.55C33.5976 43.1371 33.4691 43.4668 33.0747 43.9011C32.6564 44.3677 32.2141 44.5605 31.5787 44.5605C30.3964 44.5525 29.5358 43.6919 29.5438 42.5092C29.5518 40.9569 31.2007 40.0081 32.5842 40.7641Z" fill="#0048BB"/>
<path d="M40.539 40.539C40.3059 40.6356 40.0887 41.0619 40.161 41.2871C40.1853 41.3837 40.2899 41.5445 40.3781 41.6411C40.539 41.8259 40.5549 41.8259 43.0644 41.8259C45.4614 41.8259 45.5899 41.8179 45.7428 41.6651C46.0804 41.3274 46.0002 40.7721 45.5819 40.563C45.3408 40.4424 40.8288 40.4181 40.539 40.539Z" fill="#0048BB"/>
<path d="M40.547 43.306C40.0963 43.5072 40.0241 44.2632 40.4344 44.4803C40.5953 44.5689 45.3971 44.5929 45.6223 44.5126C45.6865 44.4803 45.8071 44.3518 45.8717 44.2233C46.0486 43.8856 45.9524 43.5395 45.6386 43.3467C45.3976 43.2018 45.2123 43.1938 43.0888 43.1938C41.3433 43.2014 40.7402 43.2253 40.547 43.306Z" fill="#0048BB"/>
<path d="M39.6381 46.2174C39.413 46.4988 39.4289 46.8365 39.6625 47.1104L39.8552 47.3355L42.5983 47.3598C44.9713 47.3758 45.3732 47.3678 45.5824 47.2553C46.0087 47.0301 46.0889 46.5152 45.7432 46.1696C45.5903 46.0167 45.4618 46.0087 42.6949 46.0087H39.7994L39.6381 46.2174Z" fill="#0048BB"/>
</svg>
