<svg width="70" height="70" viewBox="0 0 70 70" fill="none" xmlns="http://www.w3.org/2000/svg">
<rect width="70" height="70" rx="7" fill="#FFCD00"/>
<path d="M23.1344 20.0471C22.708 20.0471 22.3636 20.3915 22.3636 20.8179C22.3636 21.2443 22.708 21.5887 23.1344 21.5887C23.5608 21.5887 23.9052 21.2443 23.9052 20.8179C23.9052 20.3915 23.5608 20.0471 23.1344 20.0471ZM48.6364 15.41H22.3636C20.6539 15.41 19.2763 16.7958 19.2763 18.4973V52.4986C19.2763 54.2083 20.6621 55.5859 22.3636 55.5859H48.6364C50.3461 55.5859 51.7237 54.2001 51.7237 52.4986V18.4973C51.7237 16.7958 50.3461 15.41 48.6364 15.41ZM42.4536 54.0484H22.3595C21.5067 54.0484 20.8138 53.3596 20.8138 52.5027V26.2299H50.178V52.5027C50.178 53.3596 49.4892 54.0484 48.6323 54.0484H47.0907M50.178 24.6801H20.8179V18.4973C20.8179 17.6404 21.5067 16.9516 22.3636 16.9516H48.6364C49.4892 16.9516 50.1821 17.6404 50.1821 18.4973L50.178 24.6801ZM35.5 18.4973H30.8588C29.5755 18.4973 28.5423 19.5387 28.5423 20.8138C28.5423 22.093 29.5796 23.1303 30.8588 23.1303H35.4959C36.7792 23.1303 37.8124 22.0889 37.8124 20.8138C37.8165 19.5387 36.7792 18.4973 35.5 18.4973ZM35.5 21.5928H30.8588C30.4324 21.5928 30.088 21.2484 30.088 20.822C30.088 20.3956 30.4324 20.0512 30.8588 20.0512H35.4959C35.9223 20.0512 36.2667 20.3956 36.2667 20.822C36.2708 21.2484 35.9264 21.5928 35.5 21.5928ZM26.2258 20.0471C25.7994 20.0471 25.455 20.3915 25.455 20.8179C25.455 21.2443 25.7994 21.5887 26.2258 21.5887C26.6522 21.5887 26.9966 21.2443 26.9966 20.8179C27.0007 20.3915 26.6481 20.0471 26.2258 20.0471Z" fill="#0048BB"/>
<path d="M31.8346 43.2079C31.9863 42.7938 32.1011 42.3018 32.0478 41.8016C32.0355 41.2891 31.892 40.7848 31.7157 40.2846C31.523 39.7967 31.3057 39.2965 31.0433 38.8373C30.785 38.3658 30.5103 37.9066 30.2315 37.4474C29.9486 37.0005 29.6657 36.5495 29.3869 36.1108L29.1819 35.7787C29.1204 35.6803 29.0671 35.5737 29.0056 35.4712L28.8334 35.1637C28.7842 35.0612 28.7473 34.9546 28.7063 34.848C28.5259 34.4298 28.4603 34.0116 28.4234 33.6016C28.4398 33.2039 28.4685 32.8062 28.612 32.4659C28.735 32.1215 28.899 31.814 29.0753 31.5557C29.2557 31.3015 29.4279 31.0842 29.5878 30.9202C29.9035 30.584 30.1208 30.42 30.1208 30.42C30.1208 30.42 29.8625 30.5061 29.4566 30.7603C29.2557 30.8915 29.0138 31.0596 28.7719 31.2974C28.5259 31.5352 28.2717 31.8304 28.0667 32.2158C27.8371 32.5889 27.7141 33.0645 27.6444 33.5688C27.6239 34.0772 27.6444 34.6307 27.833 35.1432C27.874 35.2744 27.915 35.4097 27.9642 35.5368L28.1405 35.914C28.1979 36.0411 28.2553 36.1682 28.325 36.2953L28.5218 36.6315C28.7924 37.0825 29.0671 37.5417 29.3418 38.0009C29.6247 38.4478 29.9076 38.8947 30.1659 39.3375C30.4201 39.7803 30.6661 40.2067 30.867 40.6372C31.0433 41.0677 31.2196 41.4859 31.277 41.8877C31.3631 42.2895 31.3262 42.6708 31.2688 43.0275C31.2196 43.1997 31.154 43.3596 31.1048 43.5195C31.0228 43.6671 30.949 43.8106 30.8711 43.9459C30.7071 44.2001 30.5267 44.4174 30.3832 44.5978C30.0593 44.9258 29.8748 45.1267 29.8748 45.1267C29.8748 45.1267 30.1085 44.9996 30.5185 44.7536C30.7071 44.6101 30.949 44.4379 31.1868 44.1919C31.2975 44.0607 31.4205 43.9213 31.5435 43.7696C31.6296 43.5933 31.7403 43.4088 31.8346 43.2079Z" fill="#0048BB"/>
<path d="M37.673 43.2079C37.8247 42.7938 37.9395 42.3018 37.8862 41.8016C37.8739 41.2891 37.7304 40.7848 37.5541 40.2846C37.3614 39.7967 37.1441 39.2965 36.8817 38.8373C36.6234 38.3658 36.3446 37.9066 36.0699 37.4474C35.787 37.0005 35.5041 36.5495 35.2253 36.1108L35.0203 35.7787C34.9588 35.6803 34.9055 35.5737 34.844 35.4712L34.6718 35.1637C34.6226 35.0612 34.5857 34.9546 34.5447 34.848C34.3643 34.4298 34.2987 34.0116 34.2618 33.6016C34.2782 33.2039 34.3069 32.8062 34.4463 32.4659C34.5693 32.1215 34.7333 31.814 34.9096 31.5557C35.09 31.3015 35.2622 31.0842 35.4221 30.9202C35.7378 30.584 35.9551 30.42 35.9551 30.42C35.9551 30.42 35.6968 30.5061 35.2909 30.7603C35.09 30.8915 34.8481 31.0596 34.6062 31.2974C34.3602 31.5352 34.106 31.8304 33.901 32.2158C33.6714 32.5889 33.5484 33.0645 33.4787 33.5688C33.4582 34.0772 33.4787 34.6307 33.6673 35.1432C33.7083 35.2744 33.7493 35.4097 33.7985 35.5368L33.9748 35.914C34.0322 36.0411 34.0896 36.1641 34.1593 36.2953L34.3561 36.6315C34.6267 37.0825 34.9014 37.5417 35.1761 38.0009C35.459 38.4478 35.7419 38.8947 36.0002 39.3375C36.2544 39.7803 36.5004 40.2067 36.7013 40.6372C36.8776 41.0677 37.0539 41.4859 37.1113 41.8877C37.1974 42.2895 37.1605 42.6708 37.1031 43.0275C37.0539 43.1997 36.9883 43.3596 36.9391 43.5195C36.8571 43.6671 36.7833 43.8106 36.7054 43.9459C36.5414 44.2001 36.361 44.4174 36.2175 44.5978C35.8936 44.9258 35.7091 45.1267 35.7091 45.1267C35.7091 45.1267 35.9428 44.9996 36.3528 44.7536C36.5414 44.6101 36.7833 44.4379 37.0211 44.1919C37.1318 44.0607 37.2548 43.9213 37.3778 43.7696C37.4762 43.5933 37.5787 43.4088 37.673 43.2079Z" fill="#0048BB"/>
<path d="M44.0854 41.7976C44.0731 41.2851 43.9296 40.7808 43.7533 40.2806C43.5606 39.7927 43.3433 39.2925 43.0809 38.8333C42.8226 38.3618 42.5438 37.9026 42.2691 37.4434C41.9862 36.9965 41.7033 36.5455 41.4245 36.1068L41.2195 35.7747C41.158 35.6763 41.1047 35.5697 41.0432 35.4672L40.871 35.1597C40.8218 35.0572 40.7849 34.9506 40.7439 34.844C40.5635 34.4258 40.4979 34.0076 40.461 33.5976C40.4774 33.1999 40.5061 32.8022 40.6496 32.4619C40.7726 32.1175 40.9366 31.81 41.1129 31.5517C41.2933 31.2975 41.4655 31.0802 41.6254 30.9162C41.9411 30.58 42.1584 30.416 42.1584 30.416C42.1584 30.416 41.9001 30.5021 41.4942 30.7563C41.2933 30.8875 41.0555 31.0556 40.8095 31.2934C40.5635 31.5312 40.3093 31.8264 40.1043 32.2118C39.8747 32.5849 39.7517 33.0605 39.682 33.5648C39.6615 34.0732 39.682 34.6267 39.8706 35.1392C39.9116 35.2704 39.9526 35.4057 40.0018 35.5328L40.1781 35.91C40.2355 36.0371 40.2929 36.1642 40.3626 36.2913L40.5594 36.6275C40.83 37.0785 41.1047 37.5377 41.3794 37.9969C41.6623 38.4438 41.9452 38.8907 42.2035 39.3335C42.4577 39.7763 42.7037 40.2027 42.9046 40.6332C43.0809 41.0637 43.2572 41.4819 43.3146 41.8837C43.4007 42.2855 43.3638 42.6668 43.3064 43.0235C43.2572 43.1957 43.1916 43.3556 43.1424 43.5155C43.0604 43.6631 42.9866 43.8066 42.9087 43.9419C42.7447 44.1961 42.5643 44.4134 42.4208 44.5938C42.0969 44.9218 41.9124 45.1227 41.9124 45.1227C41.9124 45.1227 42.1461 44.9956 42.5561 44.7496C42.7447 44.6061 42.9866 44.4339 43.2244 44.1879C43.3351 44.0567 43.4581 43.9173 43.5811 43.7656C43.6795 43.5934 43.782 43.413 43.8763 43.208C44.0239 42.7939 44.1387 42.306 44.0854 41.7976Z" fill="#0048BB"/>
<path d="M27.0499 46.8774H44.6881V48.0582H27.0499V46.8774Z" fill="#0048BB"/>
</svg>
