<svg width="60" height="60" viewBox="0 0 60 60" fill="none" xmlns="http://www.w3.org/2000/svg">
<path d="M41.6028 56.5777C35.6046 59.1963 28.8969 59.7089 22.5704 58.0321C16.2439 56.3554 10.6707 52.5879 6.75675 47.3422C2.84285 42.0965 0.818478 35.6811 1.01278 29.1391C1.20708 22.597 3.60864 16.3131 7.82697 11.3089C12.0453 6.30475 17.8324 2.87465 24.2472 1.57632C30.6621 0.277992 37.3275 1.18778 43.1597 4.15775C48.992 7.12773 53.6481 11.9832 56.371 17.9348C59.094 23.8865 59.7236 30.5841 58.1576 36.9389" stroke="#FFD21F" stroke-width="1.5"/>
<path d="M30.8448 20.4669C32.8701 20.4669 34.4511 21.0146 35.5878 22.1099C36.7451 23.1846 37.3238 24.7966 37.3238 26.9459C37.3238 29.4879 36.5694 31.3686 35.0608 32.5879C33.5728 33.8073 31.4854 34.4169 28.7988 34.4169C27.9308 34.4169 26.9801 34.2929 25.9468 34.0449C24.9134 33.7969 24.1178 33.5076 23.5598 33.1769L24.5518 30.4799C25.7298 30.9346 27.0008 31.1619 28.3648 31.1619C29.7288 31.1619 30.7518 30.8829 31.4338 30.3249C32.1158 29.7669 32.4568 28.8679 32.4568 27.6279C32.4568 25.9539 32.0641 24.8483 31.2788 24.3109C30.6588 23.8769 29.9148 23.6599 29.0468 23.6599C28.1788 23.6599 27.0524 23.7633 25.6678 23.9699L24.4278 21.6759H24.3968V12.7789H35.8358V16.3129H28.2718V20.6529C28.9331 20.5289 29.7908 20.4669 30.8448 20.4669Z" fill="#0048BB"/>
<path d="M20.4045 43.2518L18.2895 39.7508H19.8825L21.1155 42.0368L22.3395 39.7508H23.9415L21.8085 43.2338V45.5918H20.4045V43.2518ZM24.9095 39.7508H29.3645V40.7498H26.3135V42.0908H29.0675V43.0898H26.3135V44.5928H29.4545V45.5918H24.9095V39.7508ZM30.6727 39.7508H33.3007C34.0807 39.7508 34.6447 39.8468 34.9927 40.0388C35.3407 40.2248 35.5147 40.5398 35.5147 40.9838V42.0098C35.5147 42.3518 35.3917 42.6218 35.1457 42.8198C34.9057 43.0118 34.5847 43.1348 34.1827 43.1888L35.8747 45.5918H34.2547L32.7247 43.2968H32.0767V45.5918H30.6727V39.7508ZM33.2827 42.3698C33.6127 42.3698 33.8377 42.3278 33.9577 42.2438C34.0777 42.1538 34.1377 41.9828 34.1377 41.7308V41.3168C34.1377 41.1008 34.0717 40.9538 33.9397 40.8758C33.8137 40.7918 33.5947 40.7498 33.2827 40.7498H32.0767V42.3698H33.2827ZM38.8444 45.6818C38.2864 45.6818 37.5964 45.6278 36.7744 45.5198V44.4488C37.7944 44.6048 38.4904 44.6828 38.8624 44.6828C39.6424 44.6828 40.0324 44.4818 40.0324 44.0798V43.7018C40.0324 43.5098 39.9754 43.3628 39.8614 43.2608C39.7534 43.1588 39.5554 43.1078 39.2674 43.1078H38.5834C37.2994 43.1078 36.6574 42.5978 36.6574 41.5778V41.1458C36.6574 40.6358 36.8704 40.2608 37.2964 40.0208C37.7224 39.7808 38.3974 39.6608 39.3214 39.6608C39.8014 39.6608 40.4104 39.6998 41.1484 39.7778V40.8218C40.2424 40.7138 39.6184 40.6598 39.2764 40.6598C38.8024 40.6598 38.4844 40.6988 38.3224 40.7768C38.1484 40.8608 38.0614 40.9928 38.0614 41.1728V41.5868C38.0614 41.8928 38.3194 42.0458 38.8354 42.0458H39.5374C40.2034 42.0458 40.6864 42.1688 40.9864 42.4148C41.2864 42.6608 41.4364 43.0358 41.4364 43.5398V43.9268C41.4364 44.6228 41.1874 45.0938 40.6894 45.3398C40.4494 45.4658 40.1824 45.5528 39.8884 45.6008C39.6004 45.6548 39.2524 45.6818 38.8444 45.6818Z" fill="#0048BB"/>
</svg>
