<svg width="64" height="76" viewBox="0 0 64 76" fill="none" xmlns="http://www.w3.org/2000/svg">
<path fill-rule="evenodd" clip-rule="evenodd" d="M31.8068 1C24.0341 1 18.575 4.58651 15.3116 9.56012C12.061 14.5143 10.9969 20.8282 11.9405 26.3188C13.238 33.8693 19.8745 48.0406 31.4655 58.8616L31.8283 59.2003L32.1697 58.84C35.3369 55.4972 39.8242 49.7837 43.6639 43.6688C47.4922 37.5719 50.7292 30.9951 51.3127 25.9431C52.1028 19.1019 50.6592 12.8709 47.2835 8.33762C43.8994 3.79319 38.6055 1 31.8068 1ZM12.926 26.1494C12.0216 20.8864 13.0478 14.8332 16.1477 10.1087C19.2349 5.4037 24.3865 2 31.8068 2C38.3069 2 43.2963 4.65751 46.4814 8.93487C49.6749 13.2234 51.0865 19.1853 50.3193 25.8284C49.7636 30.6399 46.6377 37.0524 42.817 43.137C39.1445 48.9856 34.8786 54.4563 31.7846 57.7888C20.5623 47.147 14.1696 33.3859 12.926 26.1494ZM14.4333 46.1757C12.2666 46.5929 9.76849 47.6266 7.52516 49.0906C5.28375 50.5533 3.25708 52.4715 2.07599 54.6837C0.8863 56.9119 0.555386 59.4441 1.73842 62.055C2.91048 64.6416 5.53685 67.2347 10.1021 69.6904C21.2409 75.682 34.8633 75.6706 45.4875 72.7568C50.8019 71.2992 55.4024 69.106 58.5874 66.5392C61.7557 63.9859 63.624 60.973 63.1951 57.8895C62.7542 54.72 60.5349 52.1502 57.9079 50.2159C55.2723 48.2752 52.1524 46.9177 49.7552 46.1883L49.4641 47.145C51.7793 47.8495 54.7906 49.1623 57.315 51.0211C59.848 52.8863 61.8176 55.2455 62.2046 58.0272C62.5611 60.5895 61.026 63.2897 57.96 65.7605C54.9108 68.2178 50.4463 70.3598 45.223 71.7924C34.772 74.6588 21.4285 74.6474 10.5758 68.8097C6.10815 66.4065 3.6945 63.949 2.64928 61.6422C1.61505 59.3598 1.88962 57.1559 2.95813 55.1547C4.03523 53.1373 5.91948 51.3325 8.07167 49.928C10.2219 48.5248 12.6001 47.547 14.6223 47.1577L14.4333 46.1757ZM39.9527 19.6568C39.9527 23.9784 36.4494 27.4818 32.1278 27.4818C27.8062 27.4818 24.3028 23.9784 24.3028 19.6568C24.3028 15.3352 27.8062 11.8319 32.1278 11.8319C36.4494 11.8319 39.9527 15.3352 39.9527 19.6568ZM40.9527 19.6568C40.9527 24.5307 37.0017 28.4818 32.1278 28.4818C27.2539 28.4818 23.3028 24.5307 23.3028 19.6568C23.3028 14.7829 27.2539 10.8319 32.1278 10.8319C37.0017 10.8319 40.9527 14.7829 40.9527 19.6568Z" fill="#0048BB"/>
<path d="M15.3116 9.56012L15.7297 9.83442L15.7297 9.83442L15.3116 9.56012ZM11.9405 26.3188L11.4477 26.4035L11.4477 26.4035L11.9405 26.3188ZM31.4655 58.8616L31.8068 58.4961L31.8068 58.4961L31.4655 58.8616ZM31.8283 59.2003L31.4871 59.5658L31.8499 59.9045L32.1913 59.5442L31.8283 59.2003ZM32.1697 58.84L31.8068 58.4961L31.8068 58.4961L32.1697 58.84ZM43.6639 43.6688L43.2404 43.4029L43.2404 43.4029L43.6639 43.6688ZM51.3127 25.9431L51.8094 26.0005L51.8094 26.0005L51.3127 25.9431ZM47.2835 8.33762L47.6845 8.03899L47.6845 8.03899L47.2835 8.33762ZM16.1477 10.1087L15.7297 9.83442L15.7297 9.83442L16.1477 10.1087ZM12.926 26.1494L12.4332 26.2341L12.4332 26.2341L12.926 26.1494ZM46.4814 8.93487L46.0804 9.2335L46.0804 9.2335L46.4814 8.93487ZM50.3193 25.8284L50.816 25.8857L50.816 25.8857L50.3193 25.8284ZM42.817 43.137L42.3936 42.8711L42.3936 42.8711L42.817 43.137ZM31.7846 57.7888L31.4406 58.1516L31.8072 58.4993L32.151 58.129L31.7846 57.7888ZM7.52516 49.0906L7.2519 48.6719L7.2519 48.6719L7.52516 49.0906ZM14.4333 46.1757L14.9242 46.0812L14.8297 45.5902L14.3387 45.6847L14.4333 46.1757ZM2.07599 54.6837L1.63492 54.4482L1.63492 54.4482L2.07599 54.6837ZM1.73842 62.055L1.283 62.2613L1.283 62.2613L1.73842 62.055ZM10.1021 69.6904L10.3389 69.25L10.3389 69.25L10.1021 69.6904ZM45.4875 72.7568L45.3553 72.2746L45.3553 72.2746L45.4875 72.7568ZM58.5874 66.5392L58.2737 66.1498L58.2737 66.1498L58.5874 66.5392ZM63.1951 57.8895L62.6998 57.9584L63.1951 57.8895ZM57.9079 50.2159L57.6115 50.6185L57.6115 50.6185L57.9079 50.2159ZM49.7552 46.1883L49.9007 45.71L49.4224 45.5644L49.2768 46.0428L49.7552 46.1883ZM49.4641 47.145L48.9857 46.9995L48.8402 47.4778L49.3185 47.6234L49.4641 47.145ZM57.315 51.0211L57.6115 50.6185L57.315 51.0211ZM62.2046 58.0272L62.6998 57.9584L62.6998 57.9584L62.2046 58.0272ZM57.96 65.7605L57.6462 65.3712L57.6462 65.3712L57.96 65.7605ZM45.223 71.7924L45.3553 72.2746L45.3553 72.2746L45.223 71.7924ZM10.5758 68.8097L10.8126 68.3693L10.8126 68.3693L10.5758 68.8097ZM2.64928 61.6422L3.10471 61.4359L3.10471 61.4359L2.64928 61.6422ZM2.95813 55.1547L3.3992 55.3902L3.3992 55.3901L2.95813 55.1547ZM8.07167 49.928L8.34493 50.3468L8.34493 50.3468L8.07167 49.928ZM14.6223 47.1577L14.7169 47.6486L15.2078 47.5541L15.1133 47.0631L14.6223 47.1577ZM15.7297 9.83442C18.9049 4.99509 24.2103 1.5 31.8068 1.5V0.5C23.8579 0.5 18.2451 4.17794 14.8936 9.28583L15.7297 9.83442ZM12.4332 26.2341C11.5092 20.8573 12.5544 14.6737 15.7297 9.83442L14.8936 9.28583C11.5675 14.3549 10.4846 20.7991 11.4477 26.4035L12.4332 26.2341ZM31.8068 58.4961C20.2873 47.742 13.7104 33.6664 12.4332 26.2341L11.4477 26.4035C12.7655 34.0722 19.4616 48.3392 31.1243 59.2271L31.8068 58.4961ZM32.1696 58.8348L31.8068 58.4961L31.1243 59.2271L31.4871 59.5658L32.1696 58.8348ZM31.8068 58.4961L31.4654 58.8564L32.1913 59.5442L32.5327 59.1839L31.8068 58.4961ZM43.2404 43.4029C39.4159 49.4936 34.9484 55.1803 31.8068 58.4961L32.5327 59.1839C35.7254 55.8142 40.2325 50.0737 44.0873 43.9347L43.2404 43.4029ZM50.816 25.8857C50.2464 30.8175 47.0649 37.3122 43.2404 43.4029L44.0873 43.9347C47.9195 37.8317 51.2121 31.1726 51.8094 26.0005L50.816 25.8857ZM46.8824 8.63625C50.167 13.0471 51.5946 19.1435 50.816 25.8857L51.8094 26.0005C52.6109 19.0602 51.1513 12.6946 47.6845 8.03899L46.8824 8.63625ZM31.8068 1.5C38.4562 1.5 43.5979 4.22537 46.8824 8.63625L47.6845 8.03899C44.201 3.36102 38.7547 0.5 31.8068 0.5V1.5ZM15.7297 9.83442C12.5544 14.6737 11.5092 20.8573 12.4332 26.2341L13.4188 26.0648C12.5339 20.9155 13.5412 14.9926 16.5658 10.383L15.7297 9.83442ZM31.8068 1.5C24.2103 1.5 18.9049 4.99508 15.7297 9.83442L16.5658 10.383C19.5648 5.81231 24.5626 2.5 31.8068 2.5V1.5ZM46.8824 8.63625C43.5979 4.22537 38.4562 1.5 31.8068 1.5V2.5C38.1576 2.5 42.9947 5.08966 46.0804 9.2335L46.8824 8.63625ZM50.816 25.8857C51.5946 19.1435 50.167 13.0471 46.8824 8.63625L46.0804 9.2335C49.1828 13.3997 50.5784 19.227 49.8226 25.771L50.816 25.8857ZM43.2405 43.4029C47.0649 37.3122 50.2464 30.8175 50.816 25.8857L49.8226 25.771C49.2808 30.4623 46.2104 36.7926 42.3936 42.8711L43.2405 43.4029ZM32.151 58.129C35.2683 54.7714 39.5529 49.2754 43.2405 43.4029L42.3936 42.8711C38.7361 48.6958 34.4889 54.1411 31.4182 57.4486L32.151 58.129ZM12.4332 26.2341C13.697 33.588 20.1486 47.4438 31.4406 58.1516L32.1287 57.4259C20.976 46.8503 14.6421 33.1837 13.4188 26.0648L12.4332 26.2341ZM7.79841 49.5093C9.99521 48.0757 12.4333 47.07 14.5278 46.6667L14.3387 45.6847C12.0998 46.1158 9.54177 47.1775 7.2519 48.6719L7.79841 49.5093ZM2.51706 54.9192C3.64615 52.8044 5.60161 50.9429 7.79841 49.5093L7.2519 48.6719C4.9659 50.1637 2.86801 52.1387 1.63492 54.4482L2.51706 54.9192ZM2.19385 61.8486C1.08527 59.402 1.38789 57.034 2.51706 54.9192L1.63492 54.4482C0.384706 56.7898 0.0255056 59.4861 1.283 62.2613L2.19385 61.8486ZM10.3389 69.25C5.82248 66.8206 3.30248 64.2953 2.19385 61.8486L1.283 62.2613C2.51848 64.9879 5.25123 67.6488 9.86519 70.1307L10.3389 69.25ZM45.3553 72.2746C34.8176 75.1647 21.3347 75.1647 10.3389 69.25L9.86519 70.1307C21.1471 76.1993 34.909 76.1766 45.6198 73.239L45.3553 72.2746ZM58.2737 66.1498C55.1566 68.6619 50.6241 70.8295 45.3553 72.2746L45.6198 73.239C50.9797 71.7689 55.6481 69.5501 58.9012 66.9285L58.2737 66.1498ZM62.6998 57.9584C63.0925 60.781 61.3912 63.6375 58.2737 66.1498L58.9012 66.9285C62.1201 64.3344 64.1556 61.1651 63.6903 57.8206L62.6998 57.9584ZM57.6115 50.6185C60.1915 52.5184 62.2859 54.9828 62.6998 57.9584L63.6903 57.8206C63.2224 54.4572 60.8782 51.7821 58.2044 49.8133L57.6115 50.6185ZM49.6096 46.6667C51.9659 47.3836 55.0314 48.7187 57.6115 50.6185L58.2044 49.8133C55.5132 47.8316 52.3389 46.4519 49.9007 45.71L49.6096 46.6667ZM49.9424 47.2906L50.2335 46.3339L49.2768 46.0428L48.9857 46.9995L49.9424 47.2906ZM57.6115 50.6185C55.0314 48.7187 51.9659 47.3836 49.6096 46.6667L49.3185 47.6234C51.5928 48.3154 54.5497 49.6059 57.0185 51.4238L57.6115 50.6185ZM62.6998 57.9584C62.2859 54.9828 60.1916 52.5184 57.6115 50.6185L57.0185 51.4238C59.5045 53.2543 61.3494 55.5082 61.7094 58.0961L62.6998 57.9584ZM58.2737 66.1498C61.3912 63.6375 63.0925 60.781 62.6998 57.9584L61.7094 58.0961C62.0296 60.398 60.6608 62.9418 57.6462 65.3712L58.2737 66.1498ZM45.3553 72.2746C50.6241 70.8295 55.1566 68.6619 58.2737 66.1498L57.6462 65.3712C54.665 67.7737 50.2685 69.8901 45.0908 71.3102L45.3553 72.2746ZM10.3389 69.25C21.3347 75.1647 34.8176 75.1647 45.3553 72.2746L45.0908 71.3102C34.7263 74.1528 21.5223 74.1301 10.8126 68.3693L10.3389 69.25ZM2.19385 61.8486C3.30248 64.2953 5.82248 66.8206 10.3389 69.25L10.8126 68.3693C6.39383 65.9925 4.08651 63.6026 3.10471 61.4359L2.19385 61.8486ZM2.51706 54.9192C1.38788 57.034 1.08527 59.402 2.19385 61.8486L3.10471 61.4359C2.14482 59.3175 2.39135 57.2778 3.3992 55.3902L2.51706 54.9192ZM7.79841 49.5093C5.60161 50.9429 3.64615 52.8044 2.51706 54.9192L3.3992 55.3901C4.42431 53.4702 6.23735 51.7222 8.34493 50.3468L7.79841 49.5093ZM14.5278 46.6667C12.4333 47.07 9.99521 48.0757 7.79841 49.5093L8.34493 50.3468C10.4486 48.9739 12.7669 48.0241 14.7169 47.6486L14.5278 46.6667ZM13.9423 46.2702L14.1313 47.2522L15.1133 47.0631L14.9242 46.0812L13.9423 46.2702ZM32.1278 27.9818C36.7255 27.9818 40.4527 24.2546 40.4527 19.6568H39.4527C39.4527 23.7023 36.1732 26.9818 32.1278 26.9818V27.9818ZM23.8028 19.6568C23.8028 24.2546 27.53 27.9818 32.1278 27.9818V26.9818C28.0823 26.9818 24.8028 23.7023 24.8028 19.6568H23.8028ZM32.1278 11.3319C27.53 11.3319 23.8028 15.0591 23.8028 19.6568H24.8028C24.8028 15.6114 28.0823 12.3319 32.1278 12.3319V11.3319ZM40.4527 19.6568C40.4527 15.0591 36.7255 11.3319 32.1278 11.3319V12.3319C36.1732 12.3319 39.4527 15.6114 39.4527 19.6568H40.4527ZM32.1278 28.9818C37.2778 28.9818 41.4527 24.8068 41.4527 19.6568H40.4527C40.4527 24.2546 36.7255 27.9818 32.1278 27.9818V28.9818ZM22.8028 19.6568C22.8028 24.8068 26.9777 28.9818 32.1278 28.9818V27.9818C27.53 27.9818 23.8028 24.2546 23.8028 19.6568H22.8028ZM32.1278 10.3319C26.9777 10.3319 22.8028 14.5068 22.8028 19.6568H23.8028C23.8028 15.0591 27.53 11.3319 32.1278 11.3319V10.3319ZM41.4527 19.6568C41.4527 14.5068 37.2778 10.3319 32.1278 10.3319V11.3319C36.7255 11.3319 40.4527 15.0591 40.4527 19.6568H41.4527Z" fill="#0048BB"/>
</svg>
