<svg width="161" height="39" viewBox="0 0 161 39" fill="none" xmlns="http://www.w3.org/2000/svg">
<path d="M0.964 1.6H13.236V28.484H29.668V38H0.964V1.6ZM53.1939 38.832C49.2766 38.832 45.7579 38.0173 42.6379 36.388C39.5179 34.7587 37.0739 32.5053 35.3059 29.628C33.5379 26.716 32.6539 23.44 32.6539 19.8C32.6539 16.16 33.5379 12.9013 35.3059 10.024C37.0739 7.112 39.5179 4.84133 42.6379 3.212C45.7579 1.58267 49.2766 0.767999 53.1939 0.767999C57.1113 0.767999 60.6299 1.58267 63.7499 3.212C66.8699 4.84133 69.3139 7.112 71.0819 10.024C72.8499 12.9013 73.7339 16.16 73.7339 19.8C73.7339 23.44 72.8499 26.716 71.0819 29.628C69.3139 32.5053 66.8699 34.7587 63.7499 36.388C60.6299 38.0173 57.1113 38.832 53.1939 38.832ZM53.1939 28.9C54.7193 28.9 56.0886 28.536 57.3019 27.808C58.5499 27.0453 59.5379 25.988 60.2659 24.636C60.9939 23.2493 61.3579 21.6373 61.3579 19.8C61.3579 17.9627 60.9939 16.368 60.2659 15.016C59.5379 13.6293 58.5499 12.572 57.3019 11.844C56.0886 11.0813 54.7193 10.7 53.1939 10.7C51.6686 10.7 50.2819 11.0813 49.0339 11.844C47.8206 12.572 46.8499 13.6293 46.1219 15.016C45.3939 16.368 45.0299 17.9627 45.0299 19.8C45.0299 21.6373 45.3939 23.2493 46.1219 24.636C46.8499 25.988 47.8206 27.0453 49.0339 27.808C50.2819 28.536 51.6686 28.9 53.1939 28.9ZM103.824 18.812H114.484V34.204C112.335 35.6947 109.839 36.8387 106.996 37.636C104.153 38.4333 101.363 38.832 98.6241 38.832C94.7414 38.832 91.2574 38.0347 88.1721 36.44C85.0867 34.8107 82.6601 32.5573 80.8921 29.68C79.1587 26.768 78.2921 23.4747 78.2921 19.8C78.2921 16.1253 79.1587 12.8493 80.8921 9.972C82.6601 7.06 85.1041 4.80667 88.2241 3.212C91.3787 1.58267 94.9321 0.767999 98.8841 0.767999C102.455 0.767999 105.644 1.37467 108.452 2.588C111.295 3.76667 113.652 5.5 115.524 7.788L107.672 14.704C105.384 12.0347 102.663 10.7 99.5081 10.7C96.8041 10.7 94.6547 11.5147 93.0601 13.144C91.4654 14.7733 90.6681 16.992 90.6681 19.8C90.6681 22.5387 91.4481 24.74 93.0081 26.404C94.6027 28.068 96.7174 28.9 99.3521 28.9C100.912 28.9 102.403 28.6053 103.824 28.016V18.812ZM140.357 38.832C136.44 38.832 132.921 38.0173 129.801 36.388C126.681 34.7587 124.237 32.5053 122.469 29.628C120.701 26.716 119.817 23.44 119.817 19.8C119.817 16.16 120.701 12.9013 122.469 10.024C124.237 7.112 126.681 4.84133 129.801 3.212C132.921 1.58267 136.44 0.767999 140.357 0.767999C144.274 0.767999 147.793 1.58267 150.913 3.212C154.033 4.84133 156.477 7.112 158.245 10.024C160.013 12.9013 160.897 16.16 160.897 19.8C160.897 23.44 160.013 26.716 158.245 29.628C156.477 32.5053 154.033 34.7587 150.913 36.388C147.793 38.0173 144.274 38.832 140.357 38.832ZM140.357 28.9C141.882 28.9 143.252 28.536 144.465 27.808C145.713 27.0453 146.701 25.988 147.429 24.636C148.157 23.2493 148.521 21.6373 148.521 19.8C148.521 17.9627 148.157 16.368 147.429 15.016C146.701 13.6293 145.713 12.572 144.465 11.844C143.252 11.0813 141.882 10.7 140.357 10.7C138.832 10.7 137.445 11.0813 136.197 11.844C134.984 12.572 134.013 13.6293 133.285 15.016C132.557 16.368 132.193 17.9627 132.193 19.8C132.193 21.6373 132.557 23.2493 133.285 24.636C134.013 25.988 134.984 27.0453 136.197 27.808C137.445 28.536 138.832 28.9 140.357 28.9Z" fill="white"/>
</svg>
