<svg width="70" height="70" viewBox="0 0 70 70" fill="none" xmlns="http://www.w3.org/2000/svg">
<rect width="70" height="70" rx="7" fill="#FFCD00"/>
<path d="M18.9753 14.5897C18.9317 14.6859 18.888 15.0189 18.888 15.3339V15.9119H17.9329C17.1798 15.9119 16.9434 15.9383 16.8384 16.0521C16.7157 16.1748 16.6981 17.8212 16.6981 32.8916C16.6981 51.3158 16.6632 50.0461 17.2412 50.9655C17.6179 51.5522 18.292 52.1213 18.8523 52.3317C19.1148 52.4367 19.3865 52.5157 19.4567 52.5157C19.5528 52.5157 19.5793 52.7958 19.6053 53.9605C19.623 55.134 19.6578 55.4318 19.7628 55.4931C19.938 55.6069 22.3022 55.6069 22.4773 55.4931C22.5823 55.4318 22.6176 55.1428 22.6348 54.0046L22.6613 52.6035H35.0084H47.3468V53.987C47.3468 54.95 47.3816 55.4057 47.4518 55.4754C47.5219 55.5456 47.9507 55.5804 48.8004 55.5804C49.8164 55.5804 50.07 55.554 50.1839 55.4402C50.2977 55.3263 50.3241 55.0634 50.3241 53.9076C50.3241 52.5241 50.3241 52.5153 50.5253 52.5153C50.8231 52.5153 51.7513 52.0424 52.1453 51.6833C52.338 51.5081 52.6182 51.1839 52.7669 50.9562C53.336 50.0717 53.3011 51.1839 53.3011 32.8736C53.3011 21.5861 53.2751 16.192 53.2137 16.0782C53.1264 15.9295 53.021 15.9119 52.1192 15.9119H51.1121V15.3339C51.1121 14.318 51.7253 14.4234 45.5252 14.4234C41.4357 14.4234 40.0871 14.4498 40.0085 14.5284C39.9472 14.5897 39.9035 14.8963 39.9035 15.2726V15.9119H34.9912H30.0873L30.1049 15.3075C30.1226 14.9047 30.0961 14.6594 30.0171 14.5632C29.9121 14.4406 29.3603 14.423 24.4828 14.423C19.2202 14.423 19.0627 14.4318 18.9753 14.5897ZM29.3783 15.5351L29.3519 15.8678L24.5181 15.8942L19.6755 15.9119V15.5616V15.2113H24.5441H29.4044L29.3783 15.5351ZM50.3246 15.5616V15.9119L45.4908 15.8942L40.6482 15.8678L40.6217 15.5351L40.5957 15.2113H45.4555H50.3241L50.3246 15.5616ZM52.5136 19.2832V21.8666H35H17.4864V19.2832V16.6998H35H52.5136V19.2832ZM52.496 36.3327L52.4695 49.9319L52.2855 50.3258C52.0491 50.8164 51.5585 51.3153 51.0331 51.5694L50.6303 51.771L35.1134 51.7971C19.649 51.8147 19.5965 51.8147 19.1148 51.6396C18.5369 51.4208 17.9766 50.8953 17.7225 50.3435L17.5297 49.9319L17.5032 36.3327L17.4856 22.7423H35H52.5136L52.496 36.3327ZM21.8649 53.6972V54.7917H21.1207H20.3765V53.6972V52.6026H21.1207H21.8649V53.6972ZM49.5362 53.6972V54.7917H48.792H48.0477V53.6972V52.6026H48.792H49.5362V53.6972Z" fill="#0048BB" stroke="#0048BB" stroke-width="0.4"/>
<path d="M21.6461 18.0047C20.7179 18.565 20.5692 19.6511 21.3135 20.3517C22.0665 21.0699 23.1438 20.8683 23.6163 19.9313C23.9842 19.2131 23.6776 18.3726 22.8981 17.961C22.5655 17.7859 21.9611 17.8119 21.6461 18.0047ZM22.828 18.8015C23.0993 19.0728 23.0644 19.6158 22.7755 19.8435C22.2765 20.2374 21.602 19.9397 21.602 19.3181C21.602 18.8628 21.8385 18.6263 22.3026 18.6263C22.539 18.6263 22.7141 18.6876 22.828 18.8015Z" fill="#0048BB" stroke="#0048BB" stroke-width="0.5"/>
<path d="M26.1557 17.9959C25.6916 18.25 25.3501 18.7838 25.3501 19.2567C25.3501 19.7468 25.5341 20.1059 25.9457 20.4474C26.5584 20.9552 27.3115 20.8939 27.8457 20.2987C28.4938 19.5805 28.4237 18.7048 27.6794 18.1357C27.2678 17.8207 26.5937 17.7594 26.1557 17.9959ZM27.3816 18.8627C27.7584 19.3445 27.4253 20.0274 26.8125 20.0274C26.3749 20.0274 26.112 19.7733 26.112 19.3445C26.112 18.8539 26.3396 18.6263 26.8214 18.6263C27.1275 18.6263 27.2325 18.67 27.3816 18.8627Z" fill="#0048BB" stroke="#0048BB" stroke-width="0.5"/>
<path d="M31.7774 17.9433C31.7072 18.0135 31.6724 18.4511 31.6724 19.3445C31.6724 20.5268 31.69 20.6406 31.8387 20.7279C31.9525 20.7804 33.1172 20.8153 35.0437 20.8153C36.9702 20.8153 38.1349 20.7804 38.2487 20.7279C38.3974 20.6406 38.415 20.5268 38.415 19.3445C38.415 18.4511 38.3798 18.0135 38.31 17.9433C38.1614 17.7942 31.9265 17.7942 31.7774 17.9433ZM37.6271 19.292V20.0274H35.0437H32.4603V19.3008V18.5826L35.0437 18.5649L37.6271 18.5561V19.292Z" fill="#0048BB" stroke="#0048BB" stroke-width="0.5"/>
<path d="M42.5482 17.9871C42.1719 18.1711 41.8565 18.5562 41.7427 18.959C41.4802 19.9485 42.5482 21.017 43.5117 20.7365C44.5273 20.4299 44.9653 19.2917 44.3786 18.4773C43.9405 17.8821 43.1791 17.6721 42.5482 17.9871ZM43.6957 18.7755C43.9145 19.0296 43.9586 19.371 43.8095 19.66C43.4857 20.2816 42.5923 20.1153 42.4785 19.4147C42.3996 18.9506 42.6885 18.6268 43.1791 18.6268C43.4239 18.6264 43.5991 18.6789 43.6957 18.7755Z" fill="#0048BB" stroke="#0048BB" stroke-width="0.5"/>
<path d="M47.0406 18.0047C46.1296 18.5566 45.9461 19.5721 46.629 20.2815C47.0582 20.728 47.5572 20.8859 48.0654 20.7368C48.7836 20.518 49.2826 19.7296 49.1511 19.0291C49.081 18.67 48.6694 18.1534 48.3019 17.9606C47.96 17.7859 47.356 17.8031 47.0406 18.0047ZM48.2229 18.8014C48.477 19.0555 48.4594 19.5369 48.1792 19.8086C47.7416 20.2551 46.9969 19.9573 46.9969 19.3357C46.9969 18.8367 47.1897 18.6263 47.6622 18.6263C47.9339 18.6263 48.1003 18.6788 48.2229 18.8014Z" fill="#0048BB" stroke="#0048BB" stroke-width="0.5"/>
<path d="M19.6671 24.3534C19.4306 24.87 20.0438 25.9297 20.7616 26.2535C21.103 26.411 21.6986 26.4198 34.9563 26.4198C48.1527 26.4198 48.8096 26.411 49.1422 26.2535C50.1229 25.807 50.7273 24.248 49.9566 24.1606C49.6853 24.1258 49.4488 24.4059 49.4488 24.7562C49.4488 24.8788 49.3875 25.0716 49.3085 25.1854C48.9759 25.6495 49.65 25.6319 34.9387 25.6319C22.1274 25.6319 21.2782 25.6231 20.9892 25.4744C20.6654 25.3169 20.5163 25.0804 20.4025 24.5374C20.3412 24.2219 20.3063 24.1871 20.0522 24.161C19.8157 24.1342 19.7456 24.1694 19.6671 24.3534Z" fill="#0048BB" stroke="#0048BB" stroke-width="0.5"/>
<path d="M19.7633 27.9961C19.5881 28.1712 19.5881 28.2851 19.5881 38.688C19.5881 45.7634 19.6146 49.2573 19.6755 49.3712C19.7717 49.5375 20.0346 49.5375 34.9559 49.5375C49.8777 49.5375 50.1402 49.5375 50.2364 49.3712C50.2977 49.2573 50.3242 45.7634 50.3242 38.688C50.3242 28.2851 50.3242 28.1712 50.149 27.9961C49.9739 27.821 49.8601 27.821 34.9559 27.821C20.0522 27.821 19.9384 27.821 19.7633 27.9961ZM49.5362 31.9806V35.352H34.9564H20.3761V32.042C20.3761 30.2204 20.4025 28.6967 20.4374 28.6706C20.4638 28.6358 27.0314 28.6093 35.0173 28.6093H49.5362V31.9806ZM49.5362 38.7233V41.3067L34.9824 41.2891L20.4197 41.2626L20.3933 38.6969L20.3756 36.1399H34.9555H49.5362V38.7233ZM49.519 45.4395L49.4926 48.7932H34.9564H20.4202L20.3937 45.4395L20.3761 42.0942H34.9559H49.5362L49.519 45.4395Z" fill="#0048BB" stroke="#0048BB" stroke-width="0.5"/>
</svg>
