<svg width="60" height="60" viewBox="0 0 60 60" fill="none" xmlns="http://www.w3.org/2000/svg">
<path d="M37.3467 54.1022L31.6756 48.1733C19.5084 47.3484 15.0863 40.44 13.8889 36.3156C11.5689 28.3244 13.3733 21.6222 19.3022 15.9511C36.5733 5.12444 48.9467 21.1067 47.9156 29.8711L54.36 36.8311L59 34.2533V24.9733L52.04 21.1067L54.36 12.8578L47.9156 6.41333L39.6667 8.73333L33.9956 1H25.7467L20.8489 8.73333L12.6 6.41333L6.15556 13.3733L8.73333 21.1067L1 25.7467V34.5111L8.73333 39.4089L6.15556 46.8844L13.3733 54.1022L20.5911 51.5244L25.7467 59H34.5111L37.3467 54.1022Z" stroke="#FFD21F" stroke-width="1.5"/>
<path d="M25.2311 33.7378L20.0756 28.3244C17.8071 29.9742 18.6844 34.418 19.56 36.0577C23.0001 42.5 29.6133 42.1585 32.7067 40.9555L50.4933 58.7422C58.3298 59.5671 58.9141 53.7585 58.2267 50.7511L40.6978 33.7378C41.3165 27.3449 40.6978 25.2311 38.12 22.1378C34.2533 18.7866 30.3867 19.3022 28.0667 20.8489L32.9645 26.2622L25.2311 33.7378Z" stroke="#0048BB" stroke-width="1.5"/>
<path d="M51.5 55L36 37L55 51.5L51.5 55Z" fill="#0048BB"/>
</svg>
