<svg width="72" height="72" viewBox="0 0 72 72" fill="none" xmlns="http://www.w3.org/2000/svg">
<path d="M10.8273 0.895737C10.7309 0.992218 10.6617 1.44653 10.6617 1.96998V2.89302L9.86253 3.11333C8.31957 3.54029 6.94221 4.83558 6.47349 6.26838C6.26685 6.90198 6.25317 9.87774 6.25317 38.9441C6.25317 63.6445 6.29421 70.9726 6.41877 71.0972C6.68085 71.3593 65.3925 71.3312 65.6136 71.0691C65.7237 70.9316 65.7655 62.4867 65.7374 38.6L65.6964 6.30942L65.3241 5.53757C64.6495 4.1739 63.3405 3.16806 61.9769 2.9751L61.3569 2.8923V1.98294C61.3569 1.44582 61.2878 0.990776 61.1913 0.89502C60.9573 0.661736 11.0621 0.661736 10.8273 0.895737ZM60.2546 2.38326V2.93406H36.0093H11.7641V2.38326V1.83246H36.0093H60.2546V2.38326ZM62.3354 4.20197C63.0381 4.40862 63.9057 5.15237 64.2917 5.88245C64.5811 6.41958 64.5948 6.61254 64.6358 10.7453L64.6776 15.043L62.5838 15.0848C60.7651 15.1258 60.4757 15.1539 60.3381 15.3605C60.228 15.5398 60.228 15.6773 60.3381 15.8429C60.4757 16.0633 60.7651 16.0906 62.5838 16.1324L64.6639 16.1734V39.3027V62.432L62.5838 62.473C60.7651 62.5141 60.4757 62.5421 60.3381 62.7488C60.228 62.9281 60.228 63.0656 60.3381 63.2312C60.4757 63.4515 60.7651 63.4789 62.5838 63.5206L64.6639 63.5617V66.8542V70.1605H36.0093H7.35621V66.8542V63.548L32.3042 63.5206C55.9022 63.4796 57.2659 63.4659 57.4171 63.2312C57.5273 63.0656 57.5273 62.9281 57.4171 62.7488C57.2659 62.5285 55.9022 62.5148 32.3042 62.473L7.35621 62.4457V39.3027V16.1597L32.3042 16.1324C55.9022 16.0913 57.2659 16.0769 57.4171 15.8429C57.5273 15.6773 57.5273 15.5398 57.4171 15.3605C57.2659 15.1402 55.9022 15.1265 32.3042 15.0848L7.34253 15.0574L7.38357 10.8836C7.42461 7.06757 7.45269 6.68166 7.70037 6.1719C8.08629 5.40078 8.91285 4.64262 9.73941 4.32582C10.4421 4.05006 10.8417 4.05006 36.1339 4.05006C55.2405 4.03638 61.9495 4.07813 62.3354 4.20197Z" fill="#0048BB" stroke="#0048BB" stroke-width="0.5"/>
<path d="M15.0019 6.54346C13.8449 6.94306 13.7621 6.98411 13.7484 7.35635C13.7347 7.53563 13.6382 7.87978 13.5281 8.1001C13.0183 9.11962 13.0874 10.1391 13.7484 11.2271C14.3546 12.2185 15.3461 12.77 16.5175 12.7563C17.041 12.7563 17.537 12.6599 17.8265 12.5087C18.0886 12.3711 18.4601 12.261 18.6394 12.2466C19.0116 12.2329 19.0663 12.1501 19.4796 10.8829C20.1132 8.98138 19.4249 7.31458 17.689 6.52978C16.9027 6.17194 16.0625 6.18562 15.0019 6.54346ZM17.3988 7.61842C17.9633 7.89418 18.4183 8.5141 18.5695 9.18874C18.666 9.57466 18.4457 10.5114 18.2664 10.5114C18.211 10.5114 17.5226 9.8641 16.7234 9.0649C15.3324 7.67314 15.3043 7.6321 15.6348 7.49458C16.1726 7.27426 16.8336 7.32898 17.3988 7.61842ZM17.1785 11.5719C16.5996 11.8196 16.159 11.7923 15.4843 11.4344C14.4648 10.9383 13.9831 9.72586 14.4101 8.78914L14.575 8.43058L16.0625 9.9181L17.5637 11.4056L17.1785 11.5719Z" fill="#0048BB" stroke="#0048BB" stroke-width="0.5"/>
<path d="M28.2261 6.54346C27.0691 6.94306 26.9863 6.9841 26.9726 7.35634C26.9589 7.53562 26.8624 7.87978 26.7523 8.1001C25.9948 9.6013 26.6148 11.4891 28.1433 12.3431C29.0527 12.8528 30.2644 12.9219 31.05 12.5087C31.312 12.3711 31.6836 12.261 31.8628 12.2466C32.2351 12.2329 32.2898 12.1501 32.7031 10.8829C33.2128 9.32626 32.8824 8.0173 31.739 7.03954C30.7749 6.1993 29.6726 6.0481 28.2261 6.54346ZM30.8988 7.74226C31.4776 8.15554 31.78 8.78914 31.7944 9.58834C31.7944 10.7727 31.6152 10.7317 29.9901 9.10594C28.5573 7.65946 28.53 7.6321 28.8468 7.49386C29.3695 7.27426 30.4027 7.3981 30.8988 7.74226ZM30.4027 11.5719C29.8656 11.8059 29.4105 11.7786 28.7632 11.4891C27.7437 11.0348 27.2203 9.80866 27.6062 8.84386L27.7855 8.4169L29.2874 9.91882L30.7886 11.4063L30.4027 11.5719Z" fill="#0048BB" stroke="#0048BB" stroke-width="0.5"/>
<path d="M41.7268 6.46139C41.4237 6.58524 41.0105 6.70908 40.8038 6.75084C40.3769 6.83364 40.0874 7.10868 40.1839 7.37076C40.2112 7.46724 40.1292 7.77036 40.0046 8.03172C39.4675 9.13404 39.5222 10.1118 40.1976 11.2278C40.8038 12.2192 41.7952 12.7708 42.9667 12.7571C43.4901 12.7571 43.9862 12.6606 44.2756 12.5094C44.537 12.3719 44.9092 12.2617 45.0885 12.2473C45.46 12.2336 45.5155 12.1508 45.9151 10.9247C46.4385 9.3126 46.2456 8.33483 45.1713 7.27427C44.1784 6.26843 42.9667 5.97899 41.7268 6.46139ZM44.1093 7.71492C44.9496 8.34852 45.3081 9.3954 44.9632 10.2493L44.784 10.6763L43.282 9.17436L41.7816 7.68756L42.1675 7.50828C42.6772 7.28796 43.6687 7.38444 44.1093 7.71492ZM43.6831 11.572C43.2288 11.8196 42.6499 11.7923 41.9889 11.4618C41.0248 11.0075 40.5698 9.98796 40.8456 8.96844L40.9975 8.40395L42.4987 9.90516C43.9444 11.3516 43.9855 11.4064 43.6831 11.572Z" fill="#0048BB" stroke="#0048BB" stroke-width="0.5"/>
<path d="M54.676 6.54346C53.519 6.94306 53.4362 6.9841 53.4225 7.35634C53.4088 7.53562 53.3124 7.87978 53.2022 8.1001C52.6925 9.11962 52.7616 10.1391 53.4225 11.2271C54.0288 12.2185 55.0202 12.77 56.1916 12.7563C56.7151 12.7563 57.2112 12.6599 57.5006 12.5087C57.762 12.3711 58.1342 12.261 58.3135 12.2466C58.685 12.2329 58.7405 12.1501 59.1401 10.9239C59.6635 9.31186 59.4705 8.3341 58.3963 7.27354C57.3343 6.21298 56.26 5.99266 54.676 6.54346ZM57.3343 7.7149C58.1745 8.3485 58.5331 9.39538 58.1882 10.2493L58.0089 10.6763L56.5077 9.17434L55.0058 7.68682L55.3917 7.50754C55.9022 7.28794 56.8937 7.38442 57.3343 7.7149ZM56.9073 11.5719C56.2464 11.9435 55.3644 11.7231 54.6343 11.0211C54.0554 10.4703 53.8488 9.74026 54.0554 8.96842L54.2203 8.40394L55.7222 9.90514C57.1694 11.3516 57.2104 11.4063 56.9073 11.5719Z" fill="#0048BB" stroke="#0048BB" stroke-width="0.5"/>
<path d="M16.5168 20.1406C14.4504 20.6503 12.7972 23.0472 13.2796 24.8522C13.5273 25.7753 14.5332 26.2296 15.4836 25.8581C16.0624 25.6241 16.4476 25.1006 16.4476 24.5635C16.4476 24.1639 16.8055 23.5166 17.0676 23.4065C17.1914 23.3654 25.884 23.3237 36.3672 23.3237C55.1714 23.3237 55.4328 23.3237 55.7085 23.5994C55.8605 23.7506 56.0117 24.0264 56.0527 24.2194C56.0937 24.4123 56.1492 24.7291 56.1902 24.9221C56.4242 26.0244 57.9945 26.3822 58.8629 25.5146C59.3452 25.0466 59.4554 24.4951 59.2898 23.6002C59.0277 22.2365 58.2012 21.1478 56.9066 20.4595L56.1902 20.0873L36.5594 20.0599C25.7601 20.0578 16.7508 20.0851 16.5168 20.1406ZM55.7093 21.2702C56.0952 21.353 56.6596 21.6144 56.9764 21.8628C58.271 22.8406 58.7671 25.2238 57.6101 24.935C57.3206 24.8522 57.2378 24.7284 57.1694 24.2597C57.0456 23.5022 56.6733 22.9097 56.0952 22.5655C55.6409 22.2898 55.3925 22.2898 36.2858 22.2898C17.1784 22.2898 16.9308 22.2898 16.4764 22.5655C15.8976 22.9097 15.526 23.5022 15.4022 24.2597C15.3331 24.7284 15.251 24.8522 14.9616 24.935C14.2041 25.1143 14.094 24.1776 14.6995 22.9234C15.0854 22.1522 15.8428 21.546 16.6831 21.3113C17.5636 21.0773 54.6206 21.0355 55.7093 21.2702Z" fill="#0048BB" stroke="#0048BB" stroke-width="0.5"/>
<path d="M16.5722 28.5985C16.2417 28.7778 15.7867 29.1911 15.5527 29.5079L15.1394 30.1005V42.0575V54.0145L15.5527 54.6071C15.7867 54.9376 16.2417 55.3372 16.5859 55.5165L17.2058 55.8333H35.5968C48.2839 55.8333 54.1526 55.7922 54.5112 55.6821C55.1995 55.4891 56.0678 54.6215 56.2608 53.9188C56.3572 53.5465 56.3846 49.6758 56.3709 41.7414L56.3299 30.1012L55.9166 29.5086C55.6963 29.1918 55.2276 28.7785 54.8971 28.5993L54.2908 28.2825H35.7343H17.1784L16.5722 28.5985ZM29.6035 32.4145C31.2847 34.0813 32.7448 35.4457 32.8687 35.4457C33.13 35.4457 33.5296 35.0872 33.5296 34.8532C33.5296 34.7704 32.3452 33.5032 30.8844 32.043L28.2391 29.3841H41.1609C52.8703 29.3841 54.1238 29.4114 54.468 29.6044C55.3356 30.1278 55.2945 29.4532 55.2945 41.9891C55.2945 54.6215 55.3356 54.0707 54.3988 54.5113C54.0266 54.6906 53.3656 54.7317 50.7348 54.7317H47.5113L38.9714 46.1903C34.2741 41.493 30.3343 37.6497 30.2097 37.6497C29.9203 37.6497 29.6726 37.9254 29.6726 38.2559C29.6726 38.4489 32.3863 41.2453 37.7589 46.6317L45.8589 54.7317H31.6152C18.6933 54.7317 17.357 54.718 16.9992 54.5113C16.1316 53.9879 16.1726 54.6633 16.1726 42.0582C16.1726 31.7262 16.2 30.5555 16.3929 30.225C16.889 29.3985 16.9027 29.3985 21.9585 29.3848H26.5593L29.6035 32.4145Z" fill="#0048BB" stroke="#0048BB" stroke-width="0.5"/>
<path d="M35.321 37.3053C35.2245 37.4155 35.1835 37.6495 35.2245 37.8151C35.3347 38.2147 40.8448 43.7112 41.1343 43.7112C41.3956 43.7112 41.7952 43.3526 41.7952 43.1186C41.7952 42.8709 35.9683 37.0987 35.7062 37.0987C35.596 37.098 35.4175 37.1945 35.321 37.3053Z" fill="#0048BB" stroke="#0048BB" stroke-width="0.5"/>
</svg>
