<svg width="70" height="70" viewBox="0 0 70 70" fill="none" xmlns="http://www.w3.org/2000/svg">
<rect width="70" height="70" rx="7" fill="#FFCD00"/>
<path d="M20.316 13.5224C20.2597 13.5787 20.2194 13.8437 20.2194 14.1491V14.6875L19.7532 14.816C18.8531 15.0651 18.0496 15.8207 17.7762 16.6565C17.6557 17.0261 17.6477 18.7619 17.6477 35.7173C17.6477 50.1259 17.6716 54.4006 17.7443 54.4733C17.8972 54.6262 52.1457 54.6098 52.2746 54.4569C52.3389 54.3767 52.3632 49.4505 52.3468 35.5166L52.3229 16.6804L52.1058 16.2302C51.7122 15.4347 50.9487 14.848 50.1532 14.7354L49.7916 14.6871V14.1566C49.7916 13.8433 49.7512 13.5779 49.695 13.522C49.5585 13.3859 20.4529 13.3859 20.316 13.5224ZM49.1485 14.3902V14.7115H35.0055H20.8624V14.3902V14.0689H35.0055H49.1485V14.3902ZM50.3623 15.4511C50.7723 15.5716 51.2784 16.0055 51.5035 16.4314C51.6723 16.7447 51.6803 16.8572 51.7042 19.268L51.7286 21.775L50.5072 21.7994C49.4463 21.8233 49.2775 21.8397 49.1973 21.9602C49.133 22.0648 49.133 22.145 49.1973 22.2416C49.2775 22.3702 49.4463 22.3861 50.5072 22.4105L51.7206 22.4344V35.9265V49.4186L50.5072 49.4425C49.4463 49.4665 49.2775 49.4828 49.1973 49.6034C49.133 49.708 49.133 49.7882 49.1973 49.8848C49.2775 50.0133 49.4463 50.0293 50.5072 50.0536L51.7206 50.0776V51.9982V53.9269H35.0055H18.2911V51.9982V50.0696L32.8441 50.0536C46.6096 50.0297 47.4051 50.0217 47.4933 49.8848C47.5576 49.7882 47.5576 49.708 47.4933 49.6034C47.4051 49.4749 46.6096 49.4669 32.8441 49.4425L18.2911 49.4266V35.9265V22.4264L32.8441 22.4105C46.6096 22.3865 47.4051 22.3781 47.4933 22.2416C47.5576 22.145 47.5576 22.0648 47.4933 21.9602C47.4051 21.8317 46.6096 21.8237 32.8441 21.7994L18.2832 21.7834L18.3071 19.3487C18.331 17.1227 18.3474 16.8976 18.4919 16.6002C18.717 16.1504 19.1992 15.7081 19.6813 15.5233C20.0913 15.3625 20.3244 15.3625 35.0781 15.3625C46.2237 15.3545 50.1372 15.3788 50.3623 15.4511Z" fill="#0048BB" stroke="#0048BB" stroke-width="0.5"/>
<path d="M22.7512 16.8169C22.0762 17.05 22.0279 17.0739 22.0199 17.2911C22.012 17.3957 21.9557 17.5964 21.8914 17.7249C21.5941 18.3197 21.6344 18.9144 22.0199 19.549C22.3736 20.1273 22.9519 20.4491 23.6353 20.4411C23.9406 20.4411 24.23 20.3848 24.3988 20.2966C24.5517 20.2164 24.7684 20.1521 24.873 20.1437C25.0901 20.1357 25.1221 20.0874 25.3631 19.3482C25.7327 18.239 25.3312 17.2667 24.3186 16.8089C23.86 16.6002 23.3698 16.6082 22.7512 16.8169ZM24.1493 17.444C24.4786 17.6048 24.7441 17.9664 24.8323 18.36C24.8885 18.5851 24.76 19.1315 24.6554 19.1315C24.6231 19.1315 24.2216 18.7539 23.7554 18.2877C22.9439 17.4759 22.9276 17.4519 23.1203 17.3717C23.4341 17.2432 23.8196 17.2751 24.1493 17.444ZM24.0208 19.7502C23.6831 19.8947 23.4261 19.8787 23.0326 19.67C22.4378 19.3806 22.1569 18.6733 22.4059 18.1269L22.5021 17.9177L23.3698 18.7854L24.2455 19.6532L24.0208 19.7502Z" fill="#0048BB" stroke="#0048BB" stroke-width="0.5"/>
<path d="M30.4652 16.8169C29.7903 17.05 29.742 17.074 29.734 17.2911C29.726 17.3957 29.6697 17.5964 29.6055 17.725C29.1636 18.6007 29.5253 19.7019 30.4169 20.2C30.9474 20.4974 31.6542 20.5377 32.1125 20.2966C32.2653 20.2164 32.4821 20.1521 32.5866 20.1437C32.8038 20.1358 32.8357 20.0875 33.0768 19.3483C33.3741 18.4402 33.1814 17.6767 32.5144 17.1063C31.952 16.6162 31.309 16.528 30.4652 16.8169ZM32.0243 17.5162C32.3619 17.7573 32.5383 18.1269 32.5467 18.5931C32.5467 19.284 32.4422 19.2601 31.4942 18.3117C30.6584 17.4679 30.6425 17.452 30.8273 17.3713C31.1322 17.2432 31.7349 17.3155 32.0243 17.5162ZM31.7349 19.7502C31.4216 19.8867 31.1561 19.8707 30.7785 19.7019C30.1838 19.4369 29.8785 18.7216 30.1036 18.1588L30.2082 17.9098L31.0843 18.7859L31.96 19.6536L31.7349 19.7502Z" fill="#0048BB" stroke="#0048BB" stroke-width="0.5"/>
<path d="M38.3406 16.769C38.1638 16.8413 37.9227 16.9135 37.8022 16.9379C37.5531 16.9862 37.3843 17.1466 37.4406 17.2995C37.4565 17.3558 37.4086 17.5326 37.336 17.685C37.0227 18.3281 37.0546 18.8984 37.4485 19.5494C37.8022 20.1278 38.3805 20.4495 39.0639 20.4415C39.3692 20.4415 39.6586 20.3852 39.8274 20.297C39.9799 20.2168 40.197 20.1525 40.3016 20.1441C40.5183 20.1362 40.5507 20.0879 40.7838 19.3726C41.0891 18.4322 40.9765 17.8619 40.3499 17.2432C39.7707 16.6565 39.0639 16.4876 38.3406 16.769ZM39.7304 17.5002C40.2205 17.8698 40.4297 18.4805 40.2285 18.9786L40.1239 19.2277L39.2478 18.3516L38.3725 17.4843L38.5977 17.3797C38.895 17.2512 39.4734 17.3075 39.7304 17.5002ZM39.4818 19.7502C39.2167 19.8947 38.8791 19.8787 38.4935 19.6859C37.9311 19.4209 37.6657 18.8262 37.8265 18.2315L37.9152 17.9022L38.7909 18.7779C39.6342 19.6217 39.6582 19.6536 39.4818 19.7502Z" fill="#0048BB" stroke="#0048BB" stroke-width="0.5"/>
<path d="M45.8944 16.8169C45.2194 17.05 45.1711 17.0739 45.1631 17.2911C45.1552 17.3957 45.0989 17.5964 45.0346 17.7249C44.7373 18.3197 44.7776 18.9144 45.1631 19.549C45.5168 20.1273 46.0951 20.4491 46.7785 20.4411C47.0838 20.4411 47.3732 20.3848 47.542 20.2966C47.6945 20.2164 47.9116 20.1521 48.0162 20.1437C48.2329 20.1357 48.2653 20.0874 48.4984 19.3722C48.8037 18.4318 48.6911 17.8614 48.0645 17.2428C47.445 16.6241 46.8184 16.4956 45.8944 16.8169ZM47.445 17.5002C47.9351 17.8698 48.1443 18.4805 47.9431 18.9786L47.8385 19.2277L46.9628 18.3516L46.0867 17.4839L46.3118 17.3793C46.6096 17.2512 47.188 17.3075 47.445 17.5002ZM47.1959 19.7502C46.8104 19.9669 46.2959 19.8384 45.87 19.4289C45.5323 19.1076 45.4118 18.6817 45.5323 18.2315L45.6285 17.9022L46.5046 18.7779C47.3488 19.6217 47.3728 19.6536 47.1959 19.7502Z" fill="#0048BB" stroke="#0048BB" stroke-width="0.5"/>
<path d="M23.6348 24.7486C22.4294 25.046 21.4651 26.4442 21.7465 27.4971C21.891 28.0355 22.4777 28.3006 23.0321 28.0838C23.3698 27.9473 23.5945 27.642 23.5945 27.3287C23.5945 27.0956 23.8032 26.718 23.9561 26.6537C24.0284 26.6298 29.099 26.6054 35.2142 26.6054C46.1834 26.6054 46.3358 26.6054 46.4967 26.7663C46.5853 26.8545 46.6735 27.0154 46.6974 27.1279C46.7214 27.2405 46.7537 27.4253 46.7777 27.5378C46.9142 28.1809 47.8302 28.3896 48.3367 27.8835C48.6181 27.6105 48.6824 27.2888 48.5858 26.7667C48.4329 25.9712 47.9507 25.3362 47.1956 24.9347L46.7777 24.7175L35.3264 24.7016C29.0268 24.7003 23.7713 24.7163 23.6348 24.7486ZM46.4971 25.4076C46.7222 25.4559 47.0515 25.6084 47.2363 25.7533C47.9915 26.3236 48.2808 27.7138 47.6059 27.5454C47.4371 27.4971 47.3888 27.4249 47.3489 27.1514C47.2766 26.7096 47.0595 26.3639 46.7222 26.1632C46.4572 26.0023 46.3123 26.0023 35.1668 26.0023C24.0208 26.0023 23.8763 26.0023 23.6113 26.1632C23.2736 26.3639 23.0569 26.7096 22.9847 27.1514C22.9443 27.4249 22.8965 27.4971 22.7276 27.5454C22.2858 27.65 22.2215 27.1036 22.5747 26.3719C22.7999 25.9221 23.2417 25.5685 23.7318 25.4315C24.2455 25.295 45.8621 25.2707 46.4971 25.4076Z" fill="#0048BB" stroke="#0048BB" stroke-width="0.5"/>
<path d="M23.6671 29.6824C23.4743 29.787 23.2089 30.0281 23.0724 30.2129L22.8313 30.5585V37.5335V44.5084L23.0724 44.8541C23.2089 45.0469 23.4743 45.28 23.6751 45.3845L24.0367 45.5693H34.7648C42.1656 45.5693 45.589 45.5454 45.7982 45.4811C46.1997 45.3686 46.7062 44.8625 46.8188 44.4526C46.875 44.2354 46.891 41.9775 46.883 37.3491L46.8591 30.559L46.618 30.2133C46.4895 30.0285 46.2161 29.7874 46.0233 29.6828L45.6696 29.498H34.845H24.0207L23.6671 29.6824ZM31.2687 31.9084C32.2494 32.8807 33.1011 33.6766 33.1734 33.6766C33.3258 33.6766 33.5589 33.4675 33.5589 33.331C33.5589 33.2827 32.868 32.5435 32.0159 31.6917L30.4728 30.1406H38.0105C44.841 30.1406 45.5722 30.1566 45.773 30.2692C46.2791 30.5745 46.2551 30.181 46.2551 37.4936C46.2551 44.8625 46.2791 44.5412 45.7326 44.7982C45.5155 44.9028 45.1299 44.9267 43.5953 44.9267H41.7149L36.7333 39.9443C33.9932 37.2042 31.695 34.9622 31.6223 34.9622C31.4535 34.9622 31.309 35.1231 31.309 35.3159C31.309 35.4284 32.892 37.0597 36.026 40.2017L40.751 44.9267H32.4422C24.9044 44.9267 24.1249 44.9188 23.9162 44.7982C23.4101 44.4929 23.434 44.8868 23.434 37.5339C23.434 31.5069 23.45 30.824 23.5625 30.6312C23.8519 30.149 23.8599 30.149 26.8091 30.1411H29.4929L31.2687 31.9084Z" fill="#0048BB" stroke="#0048BB" stroke-width="0.5"/>
<path d="M34.604 34.7614C34.5477 34.8257 34.5237 34.9622 34.5477 35.0588C34.6119 35.2919 37.8262 38.4982 37.995 38.4982C38.1475 38.4982 38.3806 38.289 38.3806 38.1525C38.3806 38.008 34.9815 34.6409 34.8287 34.6409C34.7644 34.6405 34.6602 34.6967 34.604 34.7614Z" fill="#0048BB" stroke="#0048BB" stroke-width="0.5"/>
</svg>
