<svg width="72" height="72" viewBox="0 0 72 72" fill="none" xmlns="http://www.w3.org/2000/svg">
<path d="M52.884 0.719971H19.0944C14.5512 0.719971 10.6416 4.52157 10.6416 8.94957V63.0576C10.6416 67.4784 14.5512 71.2872 19.0944 71.2872H52.9056C57.4488 71.2872 61.3584 67.4856 61.3584 63.0576V8.94957C61.3584 4.52157 57.4272 0.719971 52.884 0.719971ZM59.1552 63.0504C59.1552 66.2616 56.2392 69.0696 52.9056 69.0696H19.0944C15.768 69.0696 12.8448 66.2544 12.8448 63.0504V27.18H59.148V63.0504H59.1552ZM59.1552 24.9768H12.8448V8.94957C12.8448 5.73837 15.7608 2.93037 19.0944 2.93037H52.884C56.2248 2.93037 59.1552 5.74557 59.1552 8.94957V24.9768ZM18.9144 6.23517C17.3952 6.23517 16.1568 7.46637 16.1568 8.97837V18.9288C16.1568 20.4408 17.3952 21.672 18.9144 21.672C20.4336 21.672 21.672 20.4408 21.672 18.9288V8.97837C21.6648 7.45917 20.4336 6.23517 18.9144 6.23517ZM19.4616 18.9216C19.4616 19.2168 19.2096 19.4616 18.9072 19.4616C18.6048 19.4616 18.3528 19.2168 18.3528 18.9216V8.97837C18.3528 8.68317 18.6048 8.43837 18.9072 8.43837C19.2096 8.43837 19.4616 8.68317 19.4616 8.97837V18.9216ZM18.9144 51.192C20.412 51.192 21.672 50.0112 21.672 48.564V32.9832C21.672 31.536 20.4192 30.3552 18.9144 30.3552C17.4168 30.3552 16.1568 31.536 16.1568 32.9832V48.564C16.1568 50.0112 17.4096 51.192 18.9144 51.192ZM18.36 32.9832C18.36 32.7528 18.6336 32.5584 18.9144 32.5584C19.1952 32.5584 19.4688 32.7528 19.4688 32.9832V48.564C19.4688 48.7944 19.1952 48.9888 18.9144 48.9888C18.6336 48.9888 18.36 48.7944 18.36 48.564V32.9832ZM54.7416 11.8872C54.1296 11.8872 53.64 12.384 53.64 12.9888V20.5632C53.64 21.1752 54.1368 21.6648 54.7416 21.6648C55.3536 21.6648 55.8432 21.1752 55.8432 20.5632V12.9888C55.8432 12.3768 55.3536 11.8872 54.7416 11.8872ZM54.7416 59.9112C55.3536 59.9112 55.8432 59.4216 55.8432 58.8096V31.716C55.8432 31.104 55.3536 30.6144 54.7416 30.6144C54.1296 30.6144 53.64 31.104 53.64 31.716V58.8096C53.64 59.4216 54.1296 59.9112 54.7416 59.9112ZM54.7416 6.76077C54.1296 6.76077 53.64 7.25757 53.64 7.86237V9.05757C53.64 9.66957 54.1368 10.1592 54.7416 10.1592C55.3536 10.1592 55.8432 9.66957 55.8432 9.05757V7.86237C55.8432 7.25757 55.3536 6.76077 54.7416 6.76077Z" fill="#0048BB"/>
</svg>
