<svg width="70" height="70" viewBox="0 0 70 70" fill="none" xmlns="http://www.w3.org/2000/svg">
<rect width="70" height="70" rx="7" fill="#FFCD00"/>
<path d="M44.849 14.42H25.1384C22.4882 14.42 20.2076 16.6376 20.2076 19.2206V50.7836C20.2076 53.3624 22.4882 55.5842 25.1384 55.5842H44.8616C47.5118 55.5842 49.7924 53.3666 49.7924 50.7836V19.2206C49.7924 16.6376 47.4992 14.42 44.849 14.42ZM48.5072 50.7794C48.5072 52.6526 46.8062 54.2906 44.8616 54.2906H25.1384C23.198 54.2906 21.4928 52.6484 21.4928 50.7794V29.855H48.503V50.7794H48.5072ZM48.5072 28.5698H21.4928V19.2206C21.4928 17.3474 23.1938 15.7094 25.1384 15.7094H44.849C46.7978 15.7094 48.5072 17.3516 48.5072 19.2206V28.5698ZM25.0334 17.6372C24.1472 17.6372 23.4248 18.3554 23.4248 19.2374V25.0418C23.4248 25.9238 24.1472 26.642 25.0334 26.642C25.9196 26.642 26.642 25.9238 26.642 25.0418V19.2374C26.6378 18.3512 25.9196 17.6372 25.0334 17.6372ZM25.3526 25.0376C25.3526 25.2098 25.2056 25.3526 25.0292 25.3526C24.8528 25.3526 24.7058 25.2098 24.7058 25.0376V19.2374C24.7058 19.0652 24.8528 18.9224 25.0292 18.9224C25.2056 18.9224 25.3526 19.0652 25.3526 19.2374V25.0376ZM25.0334 43.862C25.907 43.862 26.642 43.1732 26.642 42.329V33.2402C26.642 32.396 25.9112 31.7072 25.0334 31.7072C24.1598 31.7072 23.4248 32.396 23.4248 33.2402V42.329C23.4248 43.1732 24.1556 43.862 25.0334 43.862ZM24.71 33.2402C24.71 33.1058 24.8696 32.9924 25.0334 32.9924C25.1972 32.9924 25.3568 33.1058 25.3568 33.2402V42.329C25.3568 42.4634 25.1972 42.5768 25.0334 42.5768C24.8696 42.5768 24.71 42.4634 24.71 42.329V33.2402ZM45.9326 20.9342C45.5756 20.9342 45.29 21.224 45.29 21.5768V25.9952C45.29 26.3522 45.5798 26.6378 45.9326 26.6378C46.2896 26.6378 46.5752 26.3522 46.5752 25.9952V21.5768C46.5752 21.2198 46.2896 20.9342 45.9326 20.9342ZM45.9326 48.9482C46.2896 48.9482 46.5752 48.6626 46.5752 48.3056V32.501C46.5752 32.144 46.2896 31.8584 45.9326 31.8584C45.5756 31.8584 45.29 32.144 45.29 32.501V48.3056C45.29 48.6626 45.5756 48.9482 45.9326 48.9482ZM45.9326 17.9438C45.5756 17.9438 45.29 18.2336 45.29 18.5864V19.2836C45.29 19.6406 45.5798 19.9262 45.9326 19.9262C46.2896 19.9262 46.5752 19.6406 46.5752 19.2836V18.5864C46.5752 18.2336 46.2896 17.9438 45.9326 17.9438Z" fill="#0048BB"/>
</svg>
