<svg width="74" height="73" viewBox="0 0 74 73" fill="none" xmlns="http://www.w3.org/2000/svg">
<path fill-rule="evenodd" clip-rule="evenodd" d="M2.78956 36.5559C2.11914 28.0517 6.49175 9.13995 29.5259 1.95463L29.2281 1C5.64167 8.3576 1.09511 27.7863 1.79266 36.6345L2.78956 36.5559ZM30.6936 27.028C30.0186 21.8641 30.6795 14.5851 34.7555 9.43084C38.7045 4.43706 45.9769 1.29893 58.8022 4.24587L49.5281 14.3602L49.213 14.7039L49.5338 15.0422L58.152 24.1315L58.4863 24.484L58.8483 24.1601L69.3365 14.7746C70.7321 19.8454 71.2447 26.9377 68.5575 32.6964C67.152 35.7084 64.8691 38.3625 61.3582 40.1889C57.8411 42.0185 53.0601 43.0336 46.6389 42.7062L46.4184 42.695L46.2616 42.8504L20.4139 68.4588C15.7922 72.6845 9.76985 71.5017 5.8546 68.0547C3.90046 66.3342 2.51574 64.0803 2.11758 61.7242C1.7222 59.3846 2.29241 56.9131 4.30302 54.6966L17.4354 40.2365L16.6951 39.5642L3.56254 54.0245L3.56234 54.0247C1.34342 56.4709 0.685662 59.2523 1.13156 61.8909C1.57468 64.5129 3.10049 66.9623 5.1938 68.8052C9.37142 72.4833 15.9874 73.8685 21.0964 69.1897L21.1037 69.1831L21.1107 69.1762L46.809 43.7157C53.2472 44.0153 58.1464 42.9869 61.8197 41.076C65.541 39.1402 67.9726 36.3148 69.4637 33.1192C72.4333 26.7554 71.6654 18.9514 70.0737 13.7262L69.8455 12.9771L69.262 13.4993L58.5434 23.0909L50.5802 14.6924L60.1145 4.29423L60.685 3.67203L59.8652 3.47074C46.283 0.135726 38.3239 3.30619 33.9711 8.81056C29.727 14.1774 29.0297 21.6238 29.6712 26.9134L25.3287 31.2851L26.0382 31.9898L30.5525 27.4452L30.7253 27.2712L30.6936 27.028ZM38.4415 72.2117C43.2999 71.8624 50.83 70.0441 57.6937 65.722C64.5682 61.3931 70.7903 54.5398 72.9576 44.1339L71.9787 43.9299C69.8779 54.0163 63.8567 60.6593 57.1609 64.8758C50.4542 69.099 43.0871 70.8751 38.3697 71.2143L38.4415 72.2117ZM10.0202 59.6722C10.0202 61.8906 11.8187 63.689 14.0375 63.689C16.2563 63.689 18.0548 61.8906 18.0548 59.6722C18.0548 57.4538 16.2563 55.6554 14.0375 55.6554C11.8187 55.6554 10.0202 57.4538 10.0202 59.6722ZM9.02023 59.6722C9.02023 62.4429 11.2665 64.689 14.0375 64.689C16.8085 64.689 19.0548 62.4429 19.0548 59.6722C19.0548 56.9015 16.8085 54.6554 14.0375 54.6554C11.2665 54.6554 9.02023 56.9015 9.02023 59.6722Z" fill="#0048BB"/>
<path d="M29.5259 1.95463L29.6748 2.43195L30.1521 2.28305L30.0032 1.80574L29.5259 1.95463ZM2.78956 36.5559L2.82886 37.0543L3.32731 37.015L3.28802 36.5166L2.78956 36.5559ZM29.2281 1L29.7054 0.851105L29.5565 0.373789L29.0792 0.522684L29.2281 1ZM1.79266 36.6345L1.2942 36.6738L1.3335 37.1722L1.83195 37.1329L1.79266 36.6345ZM34.7555 9.43084L35.1476 9.74098L35.1476 9.74098L34.7555 9.43084ZM30.6936 27.028L31.1893 26.9632L31.1893 26.9632L30.6936 27.028ZM58.8022 4.24587L59.1707 4.58378L59.751 3.95086L58.9141 3.75856L58.8022 4.24587ZM49.5281 14.3602L49.8966 14.6982L49.8966 14.6982L49.5281 14.3602ZM49.213 14.7039L48.8445 14.366L48.5294 14.7096L48.8502 15.0479L49.213 14.7039ZM49.5338 15.0422L49.8966 14.6982L49.8966 14.6982L49.5338 15.0422ZM58.152 24.1315L57.7892 24.4755L57.7892 24.4755L58.152 24.1315ZM58.4863 24.484L58.1234 24.8281L58.4577 25.1806L58.8197 24.8566L58.4863 24.484ZM58.8483 24.1601L59.1817 24.5327L59.1817 24.5327L58.8483 24.1601ZM69.3365 14.7746L69.8185 14.6419L69.6044 13.8638L69.003 14.402L69.3365 14.7746ZM68.5575 32.6964L69.0106 32.9078L69.0106 32.9078L68.5575 32.6964ZM61.3582 40.1889L61.5889 40.6324L61.5889 40.6324L61.3582 40.1889ZM46.6389 42.7062L46.6135 43.2056L46.6135 43.2056L46.6389 42.7062ZM46.4184 42.695L46.4439 42.1957L46.2234 42.1844L46.0665 42.3398L46.4184 42.695ZM46.2616 42.8504L46.6135 43.2056L46.6135 43.2056L46.2616 42.8504ZM20.4139 68.4588L20.7513 68.8278L20.7587 68.821L20.7658 68.814L20.4139 68.4588ZM5.8546 68.0547L6.185 67.6794L6.185 67.6794L5.8546 68.0547ZM2.11758 61.7242L1.62457 61.8076L1.62457 61.8076L2.11758 61.7242ZM4.30302 54.6966L3.93288 54.3605L3.93268 54.3607L4.30302 54.6966ZM17.4354 40.2365L17.8055 40.5727L18.1417 40.2025L17.7715 39.8664L17.4354 40.2365ZM16.6951 39.5642L17.0312 39.1941L16.6611 38.8579L16.3249 39.2281L16.6951 39.5642ZM3.56254 54.0245L3.93133 54.3622L3.93268 54.3607L3.56254 54.0245ZM3.56234 54.0247L3.19356 53.6871L3.19201 53.6888L3.56234 54.0247ZM1.13156 61.8909L0.638552 61.9742L0.638552 61.9742L1.13156 61.8909ZM5.1938 68.8052L5.5242 68.43L5.5242 68.43L5.1938 68.8052ZM21.0964 69.1897L20.7588 68.8209L20.7588 68.821L21.0964 69.1897ZM21.1037 69.1831L21.4413 69.5519L21.4486 69.5452L21.4556 69.5382L21.1037 69.1831ZM21.1107 69.1762L20.7588 68.821L20.7587 68.821L21.1107 69.1762ZM46.809 43.7157L46.8322 43.2163L46.613 43.2061L46.4571 43.3605L46.809 43.7157ZM61.8197 41.076L61.5889 40.6324L61.5889 40.6324L61.8197 41.076ZM69.4637 33.1192L69.9168 33.3307L69.9168 33.3307L69.4637 33.1192ZM70.0737 13.7262L70.552 13.5805L70.552 13.5805L70.0737 13.7262ZM69.8455 12.9771L70.3238 12.8314L70.0957 12.0823L69.5121 12.6045L69.8455 12.9771ZM69.262 13.4993L69.5954 13.8719L69.5954 13.8719L69.262 13.4993ZM58.5434 23.0909L58.1806 23.435L58.5148 23.7875L58.8768 23.4635L58.5434 23.0909ZM50.5802 14.6924L50.2117 14.3545L49.8966 14.6982L50.2174 15.0365L50.5802 14.6924ZM60.1145 4.29423L60.4831 4.63214L60.4831 4.63214L60.1145 4.29423ZM60.685 3.67203L61.0536 4.00995L61.6241 3.38775L60.8043 3.18646L60.685 3.67203ZM59.8652 3.47074L59.9845 2.98516L59.9845 2.98516L59.8652 3.47074ZM33.9711 8.81056L34.3633 9.1207L34.3633 9.1207L33.9711 8.81056ZM29.6712 26.9134L30.026 27.2657L30.1968 27.0938L30.1676 26.8532L29.6712 26.9134ZM25.3287 31.2851L24.974 30.9327L24.6216 31.2875L24.9764 31.6398L25.3287 31.2851ZM26.0382 31.9898L25.6858 32.3446L26.0406 32.6969L26.3929 32.3422L26.0382 31.9898ZM30.5525 27.4452L30.9072 27.7975L30.9072 27.7975L30.5525 27.4452ZM30.7253 27.2712L31.0801 27.6235L31.2529 27.4495L31.2211 27.2064L30.7253 27.2712ZM57.6937 65.722L57.4273 65.2989L57.4273 65.2989L57.6937 65.722ZM38.4415 72.2117L37.9428 72.2476L37.9786 72.7463L38.4773 72.7105L38.4415 72.2117ZM72.9576 44.1339L73.4471 44.2358L73.5491 43.7463L73.0596 43.6444L72.9576 44.1339ZM71.9787 43.9299L72.0806 43.4405L71.5911 43.3385L71.4892 43.828L71.9787 43.9299ZM57.1609 64.8758L57.4273 65.2989L57.4273 65.2989L57.1609 64.8758ZM38.3697 71.2143L38.3339 70.7156L37.8352 70.7515L37.871 71.2502L38.3697 71.2143ZM29.377 1.47732C6.06686 8.74873 1.60711 27.9188 2.29111 36.5952L3.28802 36.5166C2.63116 28.1846 6.91665 9.53117 29.6748 2.43195L29.377 1.47732ZM28.7508 1.1489L29.0486 2.10353L30.0032 1.80574L29.7054 0.851105L28.7508 1.1489ZM2.29111 36.5952C1.60711 27.9188 6.06685 8.74874 29.377 1.47732L29.0792 0.522684C5.21649 7.96647 0.583111 27.6538 1.2942 36.6738L2.29111 36.5952ZM2.75027 36.0574L1.75336 36.136L1.83195 37.1329L2.82886 37.0543L2.75027 36.0574ZM34.3633 9.1207C30.1704 14.4228 29.5138 21.8595 30.1978 27.0928L31.1893 26.9632C30.5235 21.8687 31.1886 14.7474 35.1476 9.74098L34.3633 9.1207ZM58.9141 3.75856C45.9645 0.783041 38.4679 3.93016 34.3633 9.1207L35.1476 9.74098C38.9411 4.94396 45.9894 1.81482 58.6902 4.73317L58.9141 3.75856ZM49.8966 14.6982L59.1707 4.58378L58.4336 3.90795L49.1595 14.0223L49.8966 14.6982ZM49.5815 15.0418L49.8966 14.6982L49.1595 14.0223L48.8445 14.366L49.5815 15.0418ZM49.8966 14.6982L49.5758 14.3598L48.8502 15.0479L49.1709 15.3862L49.8966 14.6982ZM58.5148 23.7875L49.8966 14.6982L49.1709 15.3862L57.7892 24.4755L58.5148 23.7875ZM58.8491 24.14L58.5148 23.7875L57.7892 24.4755L58.1234 24.8281L58.8491 24.14ZM58.5148 23.7875L58.1528 24.1114L58.8197 24.8566L59.1817 24.5327L58.5148 23.7875ZM69.003 14.402L58.5148 23.7875L59.1817 24.5327L69.6699 15.1472L69.003 14.402ZM69.0106 32.9078C71.7679 26.999 71.2305 19.772 69.8185 14.6419L68.8544 14.9073C70.2337 19.9188 70.7216 26.8763 68.1044 32.4849L69.0106 32.9078ZM61.5889 40.6324C65.2051 38.7513 67.5623 36.0116 69.0106 32.9078L68.1044 32.4849C66.7417 35.4052 64.5332 37.9736 61.1274 39.7453L61.5889 40.6324ZM46.6135 43.2056C53.0977 43.5361 57.9728 42.5136 61.5889 40.6324L61.1274 39.7453C57.7094 41.5233 53.0226 42.531 46.6644 42.2069L46.6135 43.2056ZM46.393 43.1944L46.6135 43.2056L46.6644 42.2069L46.4439 42.1957L46.393 43.1944ZM46.6135 43.2056L46.7703 43.0502L46.0665 42.3398L45.9097 42.4952L46.6135 43.2056ZM20.7658 68.814L46.6135 43.2056L45.9097 42.4952L20.062 68.1036L20.7658 68.814ZM5.5242 68.43C9.57026 71.9922 15.887 73.2753 20.7513 68.8278L20.0765 68.0898C15.6974 72.0936 9.96944 71.0113 6.185 67.6794L5.5242 68.43ZM1.62457 61.8076C2.04521 64.2966 3.50044 66.6482 5.5242 68.43L6.185 67.6794C4.30047 66.0202 2.98628 63.864 2.61059 61.6409L1.62457 61.8076ZM3.93268 54.3607C1.81792 56.692 1.20393 59.3185 1.62457 61.8076L2.61059 61.6409C2.24047 59.4508 2.76689 57.1343 4.67336 55.0325L3.93268 54.3607ZM17.0652 39.9004L3.93288 54.3605L4.67316 55.0328L17.8055 40.5727L17.0652 39.9004ZM16.3589 39.9344L17.0992 40.6067L17.7715 39.8664L17.0312 39.1941L16.3589 39.9344ZM3.93268 54.3607L17.0652 39.9004L16.3249 39.2281L3.19241 53.6884L3.93268 54.3607ZM3.93112 54.3624L3.93132 54.3622L3.19377 53.6869L3.19357 53.6871L3.93112 54.3624ZM1.62457 61.8076C1.20393 59.3185 1.81792 56.692 3.93268 54.3607L3.19201 53.6888C0.868921 56.2498 0.167395 59.1862 0.638552 61.9742L1.62457 61.8076ZM5.5242 68.43C3.50045 66.6482 2.04521 64.2966 1.62457 61.8076L0.638552 61.9742C1.10416 64.7293 2.70054 67.2763 4.8634 69.1805L5.5242 68.43ZM20.7588 68.821C15.8935 73.2766 9.5723 71.994 5.5242 68.43L4.86339 69.1805C9.17054 72.9726 16.0814 74.4605 21.4341 69.5584L20.7588 68.821ZM20.7661 68.8143L20.7588 68.8209L21.4341 69.5585L21.4413 69.5519L20.7661 68.8143ZM20.7587 68.821L20.7517 68.8279L21.4556 69.5382L21.4626 69.5313L20.7587 68.821ZM46.4571 43.3605L20.7588 68.821L21.4626 69.5314L47.1609 44.0709L46.4571 43.3605ZM61.5889 40.6324C58.0136 42.4923 53.2075 43.5129 46.8322 43.2163L46.7858 44.2152C53.2868 44.5177 58.2791 43.4814 62.0504 41.5196L61.5889 40.6324ZM69.0106 32.9078C67.5623 36.0116 65.2051 38.7513 61.5889 40.6324L62.0504 41.5196C65.877 39.529 68.3828 36.618 69.9168 33.3307L69.0106 32.9078ZM69.5954 13.8719C71.1686 19.0363 71.9073 26.7002 69.0106 32.9078L69.9168 33.3307C72.9593 26.8106 72.1623 18.8666 70.552 13.5805L69.5954 13.8719ZM69.3672 13.1228L69.5954 13.8719L70.552 13.5805L70.3238 12.8314L69.3672 13.1228ZM69.5954 13.8719L70.179 13.3497L69.5121 12.6045L68.9286 13.1267L69.5954 13.8719ZM58.8768 23.4635L69.5954 13.8719L68.9286 13.1267L58.21 22.7183L58.8768 23.4635ZM50.2174 15.0365L58.1806 23.435L58.9063 22.7469L50.943 14.3484L50.2174 15.0365ZM59.746 3.95631L50.2117 14.3545L50.9487 15.0304L60.4831 4.63214L59.746 3.95631ZM60.3165 3.33412L59.746 3.95631L60.4831 4.63214L61.0536 4.00995L60.3165 3.33412ZM59.746 3.95631L60.5658 4.15761L60.8043 3.18646L59.9845 2.98516L59.746 3.95631ZM34.3633 9.1207C38.556 3.81872 46.285 0.651055 59.746 3.95631L59.9845 2.98516C46.2811 -0.379603 38.0917 2.79365 33.5789 8.50043L34.3633 9.1207ZM30.1676 26.8532C29.5344 21.6323 30.2347 14.3415 34.3633 9.1207L33.5789 8.50043C29.2194 14.0133 28.525 21.6153 29.1749 26.9736L30.1676 26.8532ZM25.6835 31.6374L30.026 27.2657L29.3165 26.561L24.974 30.9327L25.6835 31.6374ZM26.3906 31.6351L25.6811 30.9303L24.9764 31.6398L25.6858 32.3446L26.3906 31.6351ZM30.1978 27.0928L25.6835 31.6375L26.3929 32.3422L30.9072 27.7975L30.1978 27.0928ZM30.3706 26.9188L30.1978 27.0928L30.9072 27.7975L31.0801 27.6235L30.3706 26.9188ZM30.1978 27.0928L30.2296 27.336L31.2211 27.2064L31.1893 26.9632L30.1978 27.0928ZM57.4273 65.2989C50.6421 69.5715 43.1935 71.3687 38.4056 71.713L38.4773 72.7105C43.4063 72.356 51.0179 70.5166 57.9601 66.1451L57.4273 65.2989ZM72.4681 44.0319C70.3341 54.278 64.2125 61.0262 57.4273 65.2989L57.9601 66.1451C64.9239 61.76 71.2465 54.8016 73.4471 44.2358L72.4681 44.0319ZM71.8767 44.4194L72.8557 44.6233L73.0596 43.6444L72.0806 43.4405L71.8767 44.4194ZM57.4273 65.2989C64.2125 61.0262 70.3341 54.278 72.4682 44.0319L71.4892 43.828C69.4217 53.7545 63.501 60.2925 56.8944 64.4527L57.4273 65.2989ZM38.4056 71.713C43.1935 71.3687 50.6421 69.5715 57.4273 65.2989L56.8944 64.4527C50.2663 68.6264 42.9807 70.3815 38.3339 70.7156L38.4056 71.713ZM38.9402 72.1759L38.8685 71.1785L37.871 71.2502L37.9428 72.2476L38.9402 72.1759ZM14.0375 63.189C12.0949 63.189 10.5202 61.6144 10.5202 59.6722H9.52023C9.52023 62.1667 11.5426 64.189 14.0375 64.189V63.189ZM17.5548 59.6722C17.5548 61.6144 15.9801 63.189 14.0375 63.189V64.189C16.5324 64.189 18.5548 62.1667 18.5548 59.6722H17.5548ZM14.0375 56.1554C15.9801 56.1554 17.5548 57.73 17.5548 59.6722H18.5548C18.5548 57.1777 16.5324 55.1554 14.0375 55.1554V56.1554ZM10.5202 59.6722C10.5202 57.73 12.0948 56.1554 14.0375 56.1554V55.1554C11.5426 55.1554 9.52023 57.1777 9.52023 59.6722H10.5202ZM14.0375 64.189C11.5426 64.189 9.52023 62.1667 9.52023 59.6722H8.52023C8.52023 62.7191 10.9904 65.189 14.0375 65.189V64.189ZM18.5548 59.6722C18.5548 62.1667 16.5324 64.189 14.0375 64.189V65.189C17.0846 65.189 19.5548 62.7191 19.5548 59.6722H18.5548ZM14.0375 55.1554C16.5324 55.1554 18.5548 57.1777 18.5548 59.6722H19.5548C19.5548 56.6253 17.0846 54.1554 14.0375 54.1554V55.1554ZM9.52023 59.6722C9.52023 57.1777 11.5426 55.1554 14.0375 55.1554V54.1554C10.9904 54.1554 8.52023 56.6253 8.52023 59.6722H9.52023Z" fill="#0048BB"/>
</svg>
