<svg width="74" height="74" viewBox="0 0 74 74" fill="none" xmlns="http://www.w3.org/2000/svg">
<path fill-rule="evenodd" clip-rule="evenodd" d="M45.7868 1.53586L45.5189 1L45.0396 1.35946L37.3289 7.14245L28.828 1.34635L28.3551 1.02391L28.0991 1.53586L23.464 10.806L13.4284 9.26208L12.8285 9.16978L12.8528 9.77625L13.2385 19.4192L3.57054 23.2864L3.05719 23.4918L3.31294 23.9819L7.95095 32.8715L1.38441 40.2105L1 40.6402L1.47968 40.96L9.57749 46.3585L6.87198 56.4075L6.71477 56.9915L7.31785 57.0362L17.7495 57.8089L20.0633 67.4499L20.1953 68L20.7251 67.8014L29.9922 64.3262L36.562 72.0553L36.9546 72.5172L37.3334 72.0438L43.5074 64.3262L53.167 67.8036L53.6923 67.9927L53.8226 67.4499L56.1438 57.7782L65.8104 56.2316L66.3487 56.1454L66.2165 55.6166L63.9049 46.37L72.3973 40.9658L72.9088 40.6402L72.4918 40.2001L65.5488 32.8713L70.5649 23.9967L70.8636 23.4683L70.2878 23.2763L61.0335 20.1916V9.75626V9.17346L60.4575 9.26208L50.4219 10.806L45.7868 1.53586ZM24.1954 11.5792L28.7375 2.49502L37.0611 8.17018L37.3566 8.37167L37.6428 8.15706L45.1603 2.51893L49.6904 11.5792L49.8534 11.9052L50.2137 11.8498L60.0335 10.3391V20.5519V20.9123L60.3754 21.0263L69.3957 24.0331L64.4965 32.7009L64.3146 33.0226L64.5688 33.2908L71.3489 40.4476L63.0639 45.7199L62.7599 45.9133L62.8473 46.263L65.1141 55.3303L55.6564 56.8435L55.3271 56.8962L55.2492 57.2205L52.9805 66.6737L43.5097 63.2642L43.1733 63.1431L42.9499 63.4223L36.9313 70.9457L30.5266 63.4108L30.2991 63.1431L29.9701 63.2665L20.9037 66.6664L18.6367 57.2205L18.5515 56.8655L18.1874 56.8386L7.99481 56.0836L10.6365 46.2717L10.7298 45.9249L10.431 45.7257L2.51406 40.4477L8.92693 33.2804L9.15767 33.0225L8.9976 32.7157L4.45527 24.0096L13.9379 20.2165L14.2659 20.0853L14.2518 19.7323L13.8762 10.3427L23.6722 11.8498L24.0324 11.9052L24.1954 11.5792ZM31.6902 44.1045L48.8833 27.7111L48.1933 26.9873L31.3651 43.0328L25.7124 37.0032L24.9828 37.6872L30.9804 44.0846L31.3253 44.4525L31.6902 44.1045ZM58.334 36.1458C58.334 47.9598 48.7569 57.5369 36.943 57.5369C25.129 57.5369 15.5519 47.9598 15.5519 36.1458C15.5519 24.3319 25.129 14.7548 36.943 14.7548C48.7569 14.7548 58.334 24.3319 58.334 36.1458ZM59.334 36.1458C59.334 48.5121 49.3092 58.5369 36.943 58.5369C24.5767 58.5369 14.5519 48.5121 14.5519 36.1458C14.5519 23.7796 24.5767 13.7548 36.943 13.7548C49.3092 13.7548 59.334 23.7796 59.334 36.1458Z" fill="#0048BB"/>
<path d="M45.5189 1L45.9661 0.776393L45.6981 0.240535L45.2189 0.600001L45.5189 1ZM45.7868 1.53586L46.234 1.31225L46.234 1.31225L45.7868 1.53586ZM45.0396 1.35946L45.3396 1.75946L45.3396 1.75946L45.0396 1.35946ZM37.3289 7.14245L37.0473 7.55557L37.3428 7.75706L37.6289 7.54245L37.3289 7.14245ZM28.828 1.34635L29.1096 0.933236L29.1096 0.933236L28.828 1.34635ZM28.3551 1.02391L28.6367 0.610798L28.1638 0.28836L27.9078 0.800306L28.3551 1.02391ZM28.0991 1.53586L28.5463 1.75946L28.5463 1.75946L28.0991 1.53586ZM23.464 10.806L23.388 11.3002L23.7482 11.3556L23.9112 11.0296L23.464 10.806ZM13.4284 9.26208L13.3524 9.75626L13.3524 9.75626L13.4284 9.26208ZM12.8285 9.16978L12.9046 8.6756L12.3047 8.58331L12.3289 9.18977L12.8285 9.16978ZM12.8528 9.77625L12.3532 9.79623L12.3532 9.79623L12.8528 9.77625ZM13.2385 19.4192L13.4242 19.8835L13.7522 19.7523L13.7381 19.3992L13.2385 19.4192ZM3.57054 23.2864L3.75623 23.7507L3.75623 23.7507L3.57054 23.2864ZM3.05719 23.4918L2.8715 23.0275L2.35815 23.2329L2.6139 23.723L3.05719 23.4918ZM3.31294 23.9819L2.86965 24.2132L2.86965 24.2132L3.31294 23.9819ZM7.95095 32.8715L8.32357 33.2049L8.55431 32.947L8.39424 32.6402L7.95095 32.8715ZM1.38441 40.2105L1.01179 39.8771L1.01179 39.8771L1.38441 40.2105ZM1 40.6402L0.627378 40.3068L0.24297 40.7364L0.722651 41.0562L1 40.6402ZM1.47968 40.96L1.75703 40.5439L1.75703 40.5439L1.47968 40.96ZM9.57749 46.3585L10.0603 46.4885L10.1537 46.1417L9.85484 45.9425L9.57749 46.3585ZM6.87198 56.4075L6.38917 56.2776L6.38917 56.2776L6.87198 56.4075ZM6.71477 56.9915L6.23196 56.8615L6.07474 57.4454L6.67783 57.4901L6.71477 56.9915ZM7.31785 57.0362L7.28092 57.5348L7.28092 57.5348L7.31785 57.0362ZM17.7495 57.8089L18.2357 57.6922L18.1505 57.3372L17.7864 57.3102L17.7495 57.8089ZM20.0633 67.4499L19.5771 67.5666L19.5771 67.5666L20.0633 67.4499ZM20.1953 68L19.7091 68.1167L19.8412 68.6668L20.3709 68.4682L20.1953 68ZM20.7251 67.8014L20.9006 68.2695L20.9006 68.2695L20.7251 67.8014ZM29.9922 64.3262L30.3732 64.0024L30.1457 63.7346L29.8167 63.858L29.9922 64.3262ZM36.562 72.0553L36.9429 71.7314L36.9429 71.7314L36.562 72.0553ZM36.9546 72.5172L36.5737 72.841L36.9663 73.303L37.3451 72.8296L36.9546 72.5172ZM37.3334 72.0438L36.9429 71.7314L36.9429 71.7314L37.3334 72.0438ZM43.5074 64.3262L43.6768 63.8558L43.3404 63.7346L43.117 64.0139L43.5074 64.3262ZM53.167 67.8036L53.3364 67.3332L53.3364 67.3332L53.167 67.8036ZM53.6923 67.9927L53.5229 68.4632L54.0482 68.6523L54.1785 68.1094L53.6923 67.9927ZM53.8226 67.4499L53.3364 67.3332L53.3364 67.3332L53.8226 67.4499ZM56.1438 57.7782L56.0648 57.2845L55.7354 57.3372L55.6576 57.6615L56.1438 57.7782ZM65.8104 56.2316L65.7314 55.7378L65.7314 55.7378L65.8104 56.2316ZM66.3487 56.1454L66.4277 56.6392L66.966 56.553L66.8338 56.0242L66.3487 56.1454ZM66.2165 55.6166L65.7314 55.7378L65.7314 55.7379L66.2165 55.6166ZM63.9049 46.37L63.6364 45.9482L63.3324 46.1417L63.4198 46.4913L63.9049 46.37ZM72.3973 40.9658L72.1289 40.5439L72.1289 40.5439L72.3973 40.9658ZM72.9088 40.6402L73.1773 41.0621L73.6888 40.7365L73.2718 40.2964L72.9088 40.6402ZM72.4918 40.2001L72.1289 40.5439L72.1289 40.5439L72.4918 40.2001ZM65.5488 32.8713L65.1135 32.6253L64.9317 32.947L65.1859 33.2152L65.5488 32.8713ZM70.5649 23.9967L70.1297 23.7507L70.1297 23.7507L70.5649 23.9967ZM70.8636 23.4683L71.2989 23.7143L71.5976 23.1859L71.0217 22.9939L70.8636 23.4683ZM70.2878 23.2763L70.4459 22.802L70.4459 22.802L70.2878 23.2763ZM61.0335 20.1916H60.5335V20.5519L60.8754 20.6659L61.0335 20.1916ZM61.0335 9.17346H61.5335V8.59065L60.9575 8.67927L61.0335 9.17346ZM60.4575 9.26208L60.3814 8.76789L60.3814 8.76789L60.4575 9.26208ZM50.4219 10.806L49.9747 11.0296L50.1377 11.3556L50.4979 11.3002L50.4219 10.806ZM28.7375 2.49502L29.0192 2.0819L28.5463 1.75946L28.2903 2.27141L28.7375 2.49502ZM24.1954 11.5792L23.7482 11.3556L23.7482 11.3556L24.1954 11.5792ZM37.0611 8.17018L37.3428 7.75706L37.3428 7.75706L37.0611 8.17018ZM37.3566 8.37167L37.075 8.78478L37.3705 8.98628L37.6566 8.77167L37.3566 8.37167ZM37.6428 8.15706L37.9428 8.55706L37.9428 8.55706L37.6428 8.15706ZM45.1603 2.51893L45.6075 2.29532L45.3396 1.75946L44.8603 2.11893L45.1603 2.51893ZM49.6904 11.5792L49.2432 11.8028L49.2432 11.8028L49.6904 11.5792ZM49.8534 11.9052L49.4062 12.1288L49.5692 12.4548L49.9295 12.3994L49.8534 11.9052ZM50.2137 11.8498L50.1377 11.3556L50.1377 11.3556L50.2137 11.8498ZM60.0335 10.3391H60.5335V9.75626L59.9575 9.84488L60.0335 10.3391ZM60.0335 20.9123H59.5335V21.2727L59.8754 21.3867L60.0335 20.9123ZM60.3754 21.0263L60.2173 21.5006L60.2173 21.5006L60.3754 21.0263ZM69.3957 24.0331L69.831 24.2791L70.1297 23.7507L69.5538 23.5587L69.3957 24.0331ZM64.4965 32.7009L64.9317 32.947L64.9317 32.947L64.4965 32.7009ZM64.3146 33.0226L63.8794 32.7766L63.6976 33.0983L63.9517 33.3665L64.3146 33.0226ZM64.5688 33.2908L64.2058 33.6347L64.2058 33.6347L64.5688 33.2908ZM71.3489 40.4476L71.6173 40.8695L72.1289 40.5439L71.7119 40.1038L71.3489 40.4476ZM63.0639 45.7199L63.3324 46.1417L63.3324 46.1417L63.0639 45.7199ZM62.7599 45.9133L62.4915 45.4915L62.1874 45.685L62.2748 46.0346L62.7599 45.9133ZM62.8473 46.263L63.3324 46.1417L63.3324 46.1417L62.8473 46.263ZM65.1141 55.3303L65.1931 55.824L65.7314 55.7378L65.5992 55.209L65.1141 55.3303ZM55.6564 56.8435L55.7354 57.3372L55.7354 57.3372L55.6564 56.8435ZM55.3271 56.8962L55.2481 56.4025L54.9187 56.4552L54.8409 56.7795L55.3271 56.8962ZM55.2492 57.2205L55.7354 57.3372L55.7354 57.3372L55.2492 57.2205ZM52.9805 66.6737L52.8111 67.1441L53.3364 67.3332L53.4667 66.7903L52.9805 66.6737ZM43.5097 63.2642L43.6791 62.7938L43.6791 62.7938L43.5097 63.2642ZM43.1733 63.1431L43.3427 62.6726L43.0062 62.5515L42.7829 62.8307L43.1733 63.1431ZM42.9499 63.4223L43.3404 63.7346L43.3404 63.7346L42.9499 63.4223ZM36.9313 70.9457L36.5503 71.2695L36.9429 71.7314L37.3217 71.258L36.9313 70.9457ZM30.5266 63.4108L30.9076 63.087L30.9076 63.087L30.5266 63.4108ZM30.2991 63.1431L30.6801 62.8193L30.4525 62.5516L30.1235 62.6749L30.2991 63.1431ZM29.9701 63.2665L30.1457 63.7346L30.1457 63.7346L29.9701 63.2665ZM20.9037 66.6664L20.4175 66.7831L20.5495 67.3332L21.0792 67.1346L20.9037 66.6664ZM18.6367 57.2205L18.1505 57.3372L18.1505 57.3372L18.6367 57.2205ZM18.5515 56.8655L19.0377 56.7489L18.9525 56.3939L18.5884 56.3669L18.5515 56.8655ZM18.1874 56.8386L18.1505 57.3372L18.1505 57.3372L18.1874 56.8386ZM7.99481 56.0836L7.51201 55.9536L7.35479 56.5375L7.95788 56.5822L7.99481 56.0836ZM10.6365 46.2717L11.1193 46.4017L11.1193 46.4017L10.6365 46.2717ZM10.7298 45.9249L11.2127 46.0549L11.306 45.7081L11.0072 45.5089L10.7298 45.9249ZM10.431 45.7257L10.1537 46.1417L10.1537 46.1417L10.431 45.7257ZM2.51406 40.4477L2.14144 40.1143L1.75703 40.5439L2.23671 40.8637L2.51406 40.4477ZM8.92693 33.2804L9.29955 33.6138L9.29955 33.6138L8.92693 33.2804ZM9.15767 33.0225L9.53029 33.3559L9.76103 33.098L9.60096 32.7912L9.15767 33.0225ZM8.9976 32.7157L8.55431 32.947L8.55431 32.947L8.9976 32.7157ZM4.45527 24.0096L4.26958 23.5453L3.75623 23.7507L4.01198 24.2408L4.45527 24.0096ZM13.9379 20.2165L14.1236 20.6807L14.1236 20.6807L13.9379 20.2165ZM14.2659 20.0853L14.4516 20.5495L14.7797 20.4183L14.7655 20.0653L14.2659 20.0853ZM14.2518 19.7323L14.7514 19.7123L14.7514 19.7123L14.2518 19.7323ZM13.8762 10.3427L13.9523 9.84855L13.3524 9.75626L13.3766 10.3627L13.8762 10.3427ZM23.6722 11.8498L23.7482 11.3556L23.7482 11.3556L23.6722 11.8498ZM24.0324 11.9052L23.9564 12.3994L24.3167 12.4548L24.4797 12.1288L24.0324 11.9052ZM48.8833 27.7111L49.2284 28.073L49.5902 27.7279L49.2452 27.366L48.8833 27.7111ZM31.6902 44.1045L31.3452 43.7427L31.3452 43.7427L31.6902 44.1045ZM48.1933 26.9873L48.5551 26.6423L48.2101 26.2804L47.8482 26.6255L48.1933 26.9873ZM31.3651 43.0328L31.0003 43.3748L31.3452 43.7427L31.7101 43.3947L31.3651 43.0328ZM25.7124 37.0032L26.0771 36.6613L25.7352 36.2965L25.3704 36.6385L25.7124 37.0032ZM24.9828 37.6872L24.6408 37.3224L24.2761 37.6644L24.618 38.0292L24.9828 37.6872ZM30.9804 44.0846L31.3452 43.7427L31.3452 43.7427L30.9804 44.0846ZM31.3253 44.4525L30.9605 44.7945L31.3054 45.1623L31.6703 44.8144L31.3253 44.4525ZM45.0717 1.22361L45.3396 1.75946L46.234 1.31225L45.9661 0.776393L45.0717 1.22361ZM45.3396 1.75946L45.8189 1.4L45.2189 0.600001L44.7396 0.959465L45.3396 1.75946ZM37.6289 7.54245L45.3396 1.75946L44.7396 0.959464L37.0289 6.74245L37.6289 7.54245ZM28.5463 1.75946L37.0473 7.55557L37.6106 6.72934L29.1096 0.933236L28.5463 1.75946ZM28.0734 1.43703L28.5463 1.75946L29.1096 0.933236L28.6367 0.610798L28.0734 1.43703ZM28.5463 1.75946L28.8023 1.24752L27.9078 0.800306L27.6519 1.31225L28.5463 1.75946ZM23.9112 11.0296L28.5463 1.75946L27.6519 1.31225L23.0168 10.5824L23.9112 11.0296ZM13.3524 9.75626L23.388 11.3002L23.54 10.3118L13.5044 8.76789L13.3524 9.75626ZM12.7525 9.66397L13.3524 9.75626L13.5044 8.76789L12.9046 8.6756L12.7525 9.66397ZM13.3524 9.75626L13.3281 9.1498L12.3289 9.18977L12.3532 9.79623L13.3524 9.75626ZM13.7381 19.3992L13.3524 9.75626L12.3532 9.79623L12.7389 19.4392L13.7381 19.3992ZM3.75623 23.7507L13.4242 19.8835L13.0528 18.955L3.38484 22.8222L3.75623 23.7507ZM3.24289 23.956L3.75623 23.7507L3.38484 22.8222L2.8715 23.0275L3.24289 23.956ZM3.75623 23.7507L3.50048 23.2605L2.6139 23.723L2.86965 24.2132L3.75623 23.7507ZM8.39424 32.6402L3.75623 23.7507L2.86965 24.2132L7.50766 33.1027L8.39424 32.6402ZM1.75703 40.5439L8.32357 33.2049L7.57833 32.5381L1.01179 39.8771L1.75703 40.5439ZM1.37262 40.9736L1.75703 40.5439L1.01179 39.8771L0.627378 40.3068L1.37262 40.9736ZM1.75703 40.5439L1.27735 40.2241L0.722651 41.0562L1.20233 41.376L1.75703 40.5439ZM9.85484 45.9425L1.75703 40.5439L1.20233 41.376L9.30014 46.7745L9.85484 45.9425ZM7.35479 56.5375L10.0603 46.4885L9.09469 46.2285L6.38917 56.2776L7.35479 56.5375ZM7.19757 57.1215L7.35479 56.5375L6.38917 56.2776L6.23196 56.8615L7.19757 57.1215ZM7.35479 56.5375L6.7517 56.4929L6.67783 57.4901L7.28092 57.5348L7.35479 56.5375ZM17.7864 57.3102L7.35479 56.5375L7.28092 57.5348L17.7125 58.3075L17.7864 57.3102ZM20.5495 67.3332L18.2357 57.6922L17.2633 57.9256L19.5771 67.5666L20.5495 67.3332ZM20.6815 67.8833L20.5495 67.3332L19.5771 67.5666L19.7091 68.1167L20.6815 67.8833ZM20.5495 67.3332L20.0198 67.5319L20.3709 68.4682L20.9006 68.2695L20.5495 67.3332ZM29.8167 63.858L20.5495 67.3332L20.9006 68.2695L30.1678 64.7943L29.8167 63.858ZM36.9429 71.7314L30.3732 64.0024L29.6113 64.65L36.181 72.3791L36.9429 71.7314ZM37.3356 72.1934L36.9429 71.7314L36.181 72.3791L36.5737 72.841L37.3356 72.1934ZM36.9429 71.7314L36.5642 72.2049L37.3451 72.8296L37.7238 72.3561L36.9429 71.7314ZM43.117 64.0139L36.9429 71.7314L37.7238 72.3561L43.8979 64.6385L43.117 64.0139ZM53.3364 67.3332L43.6768 63.8558L43.3381 64.7966L52.9977 68.2741L53.3364 67.3332ZM53.8617 67.5223L53.3364 67.3332L52.9977 68.2741L53.5229 68.4632L53.8617 67.5223ZM53.3364 67.3332L53.2061 67.8761L54.1785 68.1094L54.3088 67.5666L53.3364 67.3332ZM55.6576 57.6615L53.3364 67.3332L54.3088 67.5666L56.63 57.8949L55.6576 57.6615ZM65.7314 55.7378L56.0648 57.2845L56.2228 58.272L65.8894 56.7253L65.7314 55.7378ZM66.2697 55.6517L65.7314 55.7378L65.8894 56.7253L66.4277 56.6392L66.2697 55.6517ZM65.7314 55.7379L65.8636 56.2667L66.8338 56.0242L66.7016 55.4953L65.7314 55.7379ZM63.4198 46.4913L65.7314 55.7378L66.7016 55.4953L64.3899 46.2488L63.4198 46.4913ZM72.1289 40.5439L63.6364 45.9482L64.1733 46.7919L72.6657 41.3876L72.1289 40.5439ZM72.6404 40.2184L72.1289 40.5439L72.6657 41.3876L73.1773 41.0621L72.6404 40.2184ZM72.1289 40.5439L72.5459 40.9841L73.2718 40.2964L72.8548 39.8562L72.1289 40.5439ZM65.1859 33.2152L72.1289 40.5439L72.8548 39.8562L65.9118 32.5275L65.1859 33.2152ZM70.1297 23.7507L65.1135 32.6253L65.9841 33.1174L71.0002 24.2427L70.1297 23.7507ZM70.4283 23.2222L70.1297 23.7507L71.0002 24.2427L71.2989 23.7143L70.4283 23.2222ZM70.1297 23.7507L70.7055 23.9426L71.0217 22.9939L70.4459 22.802L70.1297 23.7507ZM60.8754 20.6659L70.1297 23.7507L70.4459 22.802L61.1916 19.7172L60.8754 20.6659ZM60.5335 9.75626V20.1916H61.5335V9.75626H60.5335ZM60.5335 9.17346V9.75626H61.5335V9.17346H60.5335ZM60.5335 9.75626L61.1095 9.66764L60.9575 8.67927L60.3814 8.76789L60.5335 9.75626ZM50.4979 11.3002L60.5335 9.75626L60.3814 8.76789L50.3458 10.3118L50.4979 11.3002ZM45.3396 1.75946L49.9747 11.0296L50.8691 10.5824L46.234 1.31225L45.3396 1.75946ZM28.2903 2.27141L23.7482 11.3556L24.6427 11.8028L29.1848 2.71862L28.2903 2.27141ZM37.3428 7.75706L29.0192 2.0819L28.4559 2.90813L36.7794 8.58329L37.3428 7.75706ZM37.6383 7.95856L37.3428 7.75706L36.7794 8.58329L37.075 8.78478L37.6383 7.95856ZM37.3428 7.75706L37.0566 7.97167L37.6566 8.77167L37.9428 8.55706L37.3428 7.75706ZM44.8603 2.11893L37.3428 7.75706L37.9428 8.55706L45.4603 2.91893L44.8603 2.11893ZM50.1377 11.3556L45.6075 2.29532L44.7131 2.74253L49.2432 11.8028L50.1377 11.3556ZM50.3007 11.6816L50.1377 11.3556L49.2432 11.8028L49.4062 12.1288L50.3007 11.6816ZM50.1377 11.3556L49.7774 11.411L49.9295 12.3994L50.2897 12.344L50.1377 11.3556ZM59.9575 9.84488L50.1377 11.3556L50.2897 12.344L60.1095 10.8333L59.9575 9.84488ZM60.5335 20.5519V10.3391H59.5335V20.5519H60.5335ZM60.5335 20.9123V20.5519H59.5335V20.9123H60.5335ZM60.5335 20.5519L60.1916 20.438L59.8754 21.3867L60.2173 21.5006L60.5335 20.5519ZM69.5538 23.5587L60.5335 20.5519L60.2173 21.5006L69.2376 24.5074L69.5538 23.5587ZM64.9317 32.947L69.831 24.2791L68.9604 23.787L64.0612 32.4549L64.9317 32.947ZM64.7499 33.2686L64.9317 32.947L64.0612 32.4549L63.8794 32.7766L64.7499 33.2686ZM64.9317 32.947L64.6776 32.6787L63.9517 33.3665L64.2058 33.6347L64.9317 32.947ZM71.7119 40.1038L64.9317 32.947L64.2058 33.6347L70.9859 40.7915L71.7119 40.1038ZM63.3324 46.1417L71.6173 40.8695L71.0804 40.0258L62.7955 45.298L63.3324 46.1417ZM63.0283 46.3352L63.3324 46.1417L62.7955 45.298L62.4915 45.4915L63.0283 46.3352ZM63.3324 46.1417L63.245 45.7921L62.2748 46.0346L62.3622 46.3842L63.3324 46.1417ZM65.5992 55.209L63.3324 46.1417L62.3622 46.3842L64.6291 55.4515L65.5992 55.209ZM55.7354 57.3372L65.1931 55.824L65.0351 54.8365L55.5774 56.3498L55.7354 57.3372ZM55.4061 57.3899L55.7354 57.3372L55.5774 56.3498L55.2481 56.4025L55.4061 57.3899ZM55.7354 57.3372L55.8133 57.0129L54.8409 56.7795L54.763 57.1038L55.7354 57.3372ZM53.4667 66.7903L55.7354 57.3372L54.763 57.1038L52.4943 66.557L53.4667 66.7903ZM43.3404 63.7346L52.8111 67.1441L53.1498 66.2032L43.6791 62.7938L43.3404 63.7346ZM43.004 63.6135L43.3404 63.7346L43.6791 62.7938L43.3427 62.6726L43.004 63.6135ZM43.3404 63.7346L43.5637 63.4554L42.7829 62.8307L42.5595 63.11L43.3404 63.7346ZM37.3217 71.258L43.3404 63.7346L42.5595 63.11L36.5408 70.6333L37.3217 71.258ZM30.1457 63.7346L36.5503 71.2695L37.3122 70.6218L30.9076 63.087L30.1457 63.7346ZM29.9181 63.4669L30.1457 63.7346L30.9076 63.087L30.6801 62.8193L29.9181 63.4669ZM30.1457 63.7346L30.4746 63.6113L30.1235 62.6749L29.7945 62.7983L30.1457 63.7346ZM21.0792 67.1346L30.1457 63.7346L29.7945 62.7983L20.7281 66.1982L21.0792 67.1346ZM18.1505 57.3372L20.4175 66.7831L21.3899 66.5497L19.1229 57.1038L18.1505 57.3372ZM18.0653 56.9822L18.1505 57.3372L19.1229 57.1038L19.0377 56.7489L18.0653 56.9822ZM18.1505 57.3372L18.5145 57.3642L18.5884 56.3669L18.2243 56.3399L18.1505 57.3372ZM7.95788 56.5822L18.1505 57.3372L18.2243 56.3399L8.03175 55.5849L7.95788 56.5822ZM10.1537 46.1417L7.51201 55.9536L8.47762 56.2136L11.1193 46.4017L10.1537 46.1417ZM10.247 45.7949L10.1537 46.1417L11.1193 46.4017L11.2127 46.0549L10.247 45.7949ZM10.1537 46.1417L10.4525 46.3409L11.0072 45.5089L10.7084 45.3096L10.1537 46.1417ZM2.23671 40.8637L10.1537 46.1417L10.7084 45.3096L2.79141 40.0317L2.23671 40.8637ZM8.55431 32.947L2.14144 40.1143L2.88668 40.7811L9.29955 33.6138L8.55431 32.947ZM8.78505 32.6891L8.55431 32.947L9.29955 33.6138L9.53029 33.3559L8.78505 32.6891ZM8.55431 32.947L8.71438 33.2538L9.60096 32.7912L9.44089 32.4844L8.55431 32.947ZM4.01198 24.2408L8.55431 32.947L9.44089 32.4844L4.89856 23.7783L4.01198 24.2408ZM13.7522 19.7523L4.26958 23.5453L4.64097 24.4738L14.1236 20.6807L13.7522 19.7523ZM14.0803 19.621L13.7522 19.7523L14.1236 20.6807L14.4516 20.5495L14.0803 19.621ZM13.7522 19.7523L13.7663 20.1053L14.7655 20.0653L14.7514 19.7123L13.7522 19.7523ZM13.3766 10.3627L13.7522 19.7523L14.7514 19.7123L14.3758 10.3228L13.3766 10.3627ZM23.7482 11.3556L13.9523 9.84855L13.8002 10.8369L23.5962 12.344L23.7482 11.3556ZM24.1085 11.411L23.7482 11.3556L23.5962 12.344L23.9564 12.3994L24.1085 11.411ZM23.7482 11.3556L23.5852 11.6816L24.4797 12.1288L24.6427 11.8028L23.7482 11.3556ZM48.5383 27.3492L31.3452 43.7427L32.0353 44.4664L49.2284 28.073L48.5383 27.3492ZM47.8314 27.3324L48.5215 28.0561L49.2452 27.366L48.5551 26.6423L47.8314 27.3324ZM31.7101 43.3947L48.5383 27.3492L47.8482 26.6255L31.02 42.671L31.7101 43.3947ZM25.3476 37.3452L31.0003 43.3748L31.7299 42.6909L26.0771 36.6613L25.3476 37.3452ZM25.3248 38.052L26.0543 37.368L25.3704 36.6385L24.6408 37.3224L25.3248 38.052ZM31.3452 43.7427L25.3476 37.3452L24.618 38.0292L30.6156 44.4266L31.3452 43.7427ZM31.6901 44.1105L31.3452 43.7427L30.6156 44.4266L30.9605 44.7945L31.6901 44.1105ZM31.3452 43.7427L30.9802 44.0906L31.6703 44.8144L32.0353 44.4664L31.3452 43.7427ZM36.943 58.0369C49.033 58.0369 58.834 48.2359 58.834 36.1458H57.834C57.834 47.6836 48.4808 57.0369 36.943 57.0369V58.0369ZM15.0519 36.1458C15.0519 48.2359 24.8529 58.0369 36.943 58.0369V57.0369C25.4052 57.0369 16.0519 47.6836 16.0519 36.1458H15.0519ZM36.943 14.2548C24.8529 14.2548 15.0519 24.0557 15.0519 36.1458H16.0519C16.0519 24.608 25.4052 15.2548 36.943 15.2548V14.2548ZM58.834 36.1458C58.834 24.0557 49.033 14.2548 36.943 14.2548V15.2548C48.4808 15.2548 57.834 24.608 57.834 36.1458H58.834ZM36.943 59.0369C49.5853 59.0369 59.834 48.7882 59.834 36.1458H58.834C58.834 48.2359 49.033 58.0369 36.943 58.0369V59.0369ZM14.0519 36.1458C14.0519 48.7882 24.3006 59.0369 36.943 59.0369V58.0369C24.8529 58.0369 15.0519 48.2359 15.0519 36.1458H14.0519ZM36.943 13.2548C24.3006 13.2548 14.0519 23.5035 14.0519 36.1458H15.0519C15.0519 24.0557 24.8529 14.2548 36.943 14.2548V13.2548ZM59.834 36.1458C59.834 23.5035 49.5853 13.2548 36.943 13.2548V14.2548C49.033 14.2548 58.834 24.0557 58.834 36.1458H59.834Z" fill="#0048BB"/>
</svg>
