<svg width="70" height="70" viewBox="0 0 70 70" fill="none" xmlns="http://www.w3.org/2000/svg">
<rect width="70" height="70" rx="7" fill="#FFCD00"/>
<path d="M18.9438 14.5679C18.6956 14.6565 18.3584 14.8959 18.048 15.2067C17.1786 16.0849 17.2584 14.0446 17.2584 34.9979C17.2584 55.9513 17.1786 53.9109 18.048 54.7892C18.9174 55.6586 17.2584 55.5788 35.0005 55.5788C52.7425 55.5788 51.0835 55.6586 51.9529 54.7892C52.8223 53.9109 52.7425 55.9513 52.7425 34.9979C52.7425 14.0446 52.8223 16.0849 51.9529 15.2067C51.0835 14.3373 52.7513 14.4171 34.9652 14.4259C20.9397 14.4259 19.2983 14.4436 18.9438 14.5679ZM51.0298 16.129L51.278 16.3684L51.3044 20.3605L51.3309 24.3522H35H18.6687L18.6952 20.3693C18.7217 16.528 18.7305 16.3772 18.8993 16.1912C18.9968 16.0845 19.1568 15.9606 19.2542 15.9161C19.3517 15.8808 26.4841 15.8539 35.1067 15.8627L50.7904 15.8804L51.0298 16.129ZM51.3049 39.699L51.2784 53.6262L51.0302 53.8656L50.7908 54.1138H35H19.2097L18.9703 53.8656L18.7221 53.6262L18.6956 39.699L18.678 25.7718H35H51.3225L51.3049 39.699Z" fill="#0048BB"/>
<path d="M41.6532 18.116C41.0942 18.3201 40.3139 19.1185 40.1186 19.686C39.7989 20.6087 40.0031 21.3891 40.7574 22.1434C41.5382 22.9153 41.6175 22.933 44.9355 22.933C48.2531 22.933 48.3329 22.9153 49.1137 22.1434C49.637 21.6112 49.9033 21.0522 49.9033 20.4491C49.9033 19.5356 49.0784 18.4176 48.1821 18.116C47.5526 17.9031 42.2652 17.9031 41.6532 18.116ZM48.191 19.6771C48.4039 19.8901 48.4392 19.9875 48.4392 20.4491C48.4392 20.9103 48.4039 21.0081 48.191 21.2211L47.9516 21.4693H44.9355H41.9195L41.6801 21.2211C41.4672 21.0081 41.4319 20.9107 41.4319 20.4579C41.4319 19.9077 41.5827 19.6242 41.964 19.4642C42.0615 19.4289 43.4454 19.402 45.0422 19.4109L47.952 19.4285L48.191 19.6771Z" fill="#0048BB"/>
<path d="M47.2065 27.28C46.6122 27.4665 45.9733 28.0961 45.7428 28.7261C45.4945 29.3737 45.7251 30.1898 46.3018 30.7664C46.7898 31.2633 47.1178 31.3964 47.7743 31.3964C48.4308 31.3964 48.7588 31.2633 49.238 30.7845C49.7172 30.3057 49.8499 29.9772 49.8499 29.3208C49.8499 28.9394 49.7966 28.6467 49.6992 28.4602C49.5039 28.0877 48.9982 27.5908 48.6525 27.4047C48.3153 27.2355 47.5614 27.1645 47.2065 27.28ZM48.3064 28.7878C48.4219 28.9029 48.4837 29.0805 48.4837 29.3199C48.4837 29.5593 48.4215 29.737 48.3064 29.8521C48.1914 29.9676 48.0137 30.0293 47.7743 30.0293C47.5349 30.0293 47.3572 29.9672 47.2422 29.8521C47.1271 29.7366 47.0649 29.5593 47.0649 29.3199C47.0649 29.0805 47.1271 28.9029 47.2422 28.7878C47.3577 28.6723 47.5349 28.6106 47.7743 28.6106C48.0137 28.6106 48.1909 28.6727 48.3064 28.7878Z" fill="#0048BB"/>
<path d="M33.3591 29.453C32.1793 29.6303 31.2835 29.923 30.1654 30.4644C26.8743 32.0701 24.621 34.9618 23.8495 38.5725C23.6365 39.575 23.6365 41.775 23.8495 42.7775C24.8339 47.3816 28.2939 50.8411 32.8979 51.826C33.9005 52.039 36.1004 52.039 37.103 51.826C41.707 50.8411 45.1666 47.3816 46.1515 42.7775C46.3644 41.775 46.3644 39.575 46.1515 38.5725C45.5387 35.7073 43.9687 33.2587 41.6444 31.5379C40.775 30.8903 39.0362 30.0209 38.1051 29.7638C36.5524 29.338 34.8136 29.2225 33.3591 29.453ZM37.0849 30.9524C40.1366 31.6265 42.5491 33.4808 43.8801 36.1953C45.3085 39.1051 45.2905 42.3252 43.8268 45.2438C41.4139 50.0427 35.4612 51.9764 30.5203 49.5547C25.1536 46.92 23.4148 40.0715 26.8121 34.971C27.3531 34.1549 28.48 33.0281 29.296 32.4871C30.5203 31.6799 32.1079 31.0499 33.5363 30.8281C34.2814 30.7126 36.3394 30.7836 37.0849 30.9524Z" fill="#0048BB"/>
<path d="M33.5363 32.2831C30.4846 32.8686 27.9209 35.0773 26.9096 38.0136C26.6433 38.7855 26.8651 39.2555 27.5039 39.2555C27.8676 39.2555 28.107 38.9892 28.3023 38.3685C29.11 35.8669 31.2389 34.084 33.9353 33.6582C34.7426 33.5338 34.8047 33.5074 34.9555 33.2146C35.1949 32.7623 34.9379 32.2919 34.4146 32.2121C34.2726 32.1852 33.8824 32.2209 33.5363 32.2831Z" fill="#0048BB"/>
<path d="M26.7059 40.187C26.2624 40.6217 26.5727 41.3845 27.1939 41.3845C27.3623 41.3845 27.5488 41.3047 27.682 41.1627C27.8239 41.0296 27.9037 40.8435 27.9037 40.6747C27.9037 40.5062 27.8239 40.3198 27.682 40.1866C27.5488 40.0447 27.3628 39.9649 27.1939 39.9649C27.0251 39.9653 26.8386 40.0451 26.7059 40.187Z" fill="#0048BB"/>
</svg>
