<svg width="72" height="72" viewBox="0 0 72 72" fill="none" xmlns="http://www.w3.org/2000/svg">
<path d="M8.47511 0.973557C8.04959 1.12547 7.47143 1.53587 6.93935 2.06867C5.44895 3.5742 5.58575 0.0764389 5.58575 35.9965C5.58575 71.9166 5.44895 68.4188 6.93935 69.9244C8.42975 71.4148 5.58575 71.278 36.0007 71.278C66.4157 71.278 63.5717 71.4148 65.0621 69.9244C66.5525 68.4188 66.4157 71.9166 66.4157 35.9965C66.4157 0.0764389 66.5525 3.5742 65.0621 2.06867C63.5717 0.57827 66.4308 0.715073 35.9402 0.730194C11.8966 0.730194 9.08279 0.760437 8.47511 0.973557ZM63.4795 3.64979L63.905 4.06019L63.9504 10.9038L63.9958 17.7467H36H8.00351L8.04887 10.9189C8.09423 4.33379 8.10935 4.07532 8.39879 3.75636C8.56583 3.57348 8.84015 3.36108 9.00719 3.28476C9.17423 3.22427 21.4013 3.17819 36.1829 3.19331L63.0691 3.22356L63.4795 3.64979ZM63.9511 44.0555L63.9058 67.9307L63.4802 68.3411L63.0698 68.7666H36H8.93087L8.52047 68.3411L8.09495 67.9307L8.04959 44.0555L8.01935 20.1803H36H63.9814L63.9511 44.0555Z" fill="#0048BB"/>
<path d="M47.4055 7.05604C46.4472 7.40596 45.1095 8.77468 44.7747 9.7474C44.2267 11.3292 44.5767 12.667 45.8698 13.9601C47.2083 15.2835 47.3443 15.3137 53.0323 15.3137C58.7196 15.3137 58.8564 15.2835 60.1949 13.9601C61.092 13.0479 61.5485 12.0896 61.5485 11.0556C61.5485 9.48964 60.1344 7.573 58.5979 7.05604C57.5187 6.691 48.4546 6.691 47.4055 7.05604ZM58.6131 9.73228C58.9781 10.0973 59.0386 10.2644 59.0386 11.0556C59.0386 11.8462 58.9781 12.014 58.6131 12.379L58.2027 12.8045H53.0323H47.862L47.4516 12.379C47.0866 12.014 47.0261 11.8469 47.0261 11.0708C47.0261 10.1276 47.2846 9.64156 47.9383 9.36724C48.1054 9.30676 50.4778 9.26068 53.2152 9.2758L58.2034 9.30604L58.6131 9.73228Z" fill="#0048BB"/>
<path d="M56.9254 22.7658C55.9066 23.0855 54.8114 24.1647 54.4162 25.2447C53.9906 26.355 54.3859 27.7539 55.3745 28.7425C56.2111 29.5943 56.7734 29.8225 57.8988 29.8225C59.0242 29.8225 59.5865 29.5943 60.408 28.7735C61.2295 27.9527 61.457 27.3896 61.457 26.2643C61.457 25.6105 61.3656 25.1087 61.1986 24.789C60.8638 24.1503 59.9969 23.2986 59.4043 22.9796C58.8262 22.6895 57.5338 22.5678 56.9254 22.7658ZM58.811 25.3506C59.009 25.5479 59.1149 25.8524 59.1149 26.2628C59.1149 26.6732 59.0083 26.9778 58.811 27.1751C58.6138 27.3731 58.3092 27.4789 57.8988 27.4789C57.4884 27.4789 57.1838 27.3723 56.9866 27.1751C56.7893 26.9771 56.6827 26.6732 56.6827 26.2628C56.6827 25.8524 56.7893 25.5479 56.9866 25.3506C57.1846 25.1526 57.4884 25.0467 57.8988 25.0467C58.3092 25.0467 58.613 25.1533 58.811 25.3506Z" fill="#0048BB"/>
<path d="M33.187 26.4912C31.1645 26.795 29.6287 27.2969 27.7121 28.225C22.0702 30.9775 18.2074 35.9347 16.8847 42.1246C16.5197 43.8432 16.5197 47.6146 16.8847 49.3332C18.5724 57.2258 24.5038 63.1565 32.3964 64.8449C34.1151 65.2099 37.8864 65.2099 39.6051 64.8449C47.4977 63.1565 53.4283 57.2258 55.1167 49.3332C55.4818 47.6146 55.4818 43.8432 55.1167 42.1246C54.0663 37.2127 51.3749 33.0151 47.3904 30.0653C45.9 28.955 42.9192 27.4646 41.323 27.024C38.6611 26.2939 35.6803 26.0959 33.187 26.4912ZM39.5741 29.0616C44.8056 30.2172 48.9413 33.396 51.223 38.0494C53.6717 43.0375 53.6407 48.5578 51.1315 53.561C46.9951 61.7878 36.7906 65.1026 28.3205 60.9511C19.1203 56.4346 16.1395 44.6942 21.9636 35.9506C22.891 34.5516 24.8227 32.6198 26.2217 31.6925C28.3205 30.3086 31.0421 29.2286 33.4908 28.8485C34.7681 28.6505 38.2961 28.7722 39.5741 29.0616Z" fill="#0048BB"/>
<path d="M33.4908 31.3424C28.2593 32.3461 23.8644 36.1326 22.1306 41.1661C21.6741 42.4895 22.0543 43.2952 23.1494 43.2952C23.7729 43.2952 24.1833 42.8387 24.5181 41.7745C25.9027 37.4862 29.5524 34.4298 34.1748 33.6997C35.5586 33.4866 35.6652 33.4412 35.9237 32.9394C36.3341 32.164 35.8934 31.3576 34.9963 31.2208C34.7529 31.1747 34.0841 31.2359 33.4908 31.3424Z" fill="#0048BB"/>
<path d="M21.7814 44.8921C21.0211 45.6373 21.5532 46.9448 22.6181 46.9448C22.9068 46.9448 23.2265 46.808 23.4547 46.5647C23.6981 46.3364 23.8349 46.0175 23.8349 45.728C23.8349 45.4393 23.6981 45.1196 23.4547 44.8914C23.2265 44.648 22.9075 44.5112 22.6181 44.5112C22.3286 44.5119 22.009 44.6487 21.7814 44.8921Z" fill="#0048BB"/>
</svg>
