<svg width="56" height="72" viewBox="0 0 56 72" fill="none" xmlns="http://www.w3.org/2000/svg">
<path fill-rule="evenodd" clip-rule="evenodd" d="M1.047 2.64761C1.047 1.76395 1.76334 1.04761 2.647 1.04761H22.2871H23.9607H53.0841C53.9678 1.04761 54.6841 1.76395 54.6841 2.64761V18.9446V36.1641V53.3584V69.5528C54.6841 70.4365 53.9678 71.1528 53.0841 71.1528H23.9607H22.2871H2.647C1.76334 71.1528 1.047 70.4365 1.047 69.5528V53.3584V36.1641V18.9446V2.64761ZM2.647 2.24761C2.42608 2.24761 2.247 2.42669 2.247 2.64761V18.3446H53.4841V2.64761C53.4841 2.42669 53.305 2.24761 53.0841 2.24761H23.9607H22.2871H2.647ZM53.4841 19.5446H2.247V35.5641H53.4841V19.5446ZM53.4841 36.7641H2.247V52.7584H53.4841V36.7641ZM53.4841 53.9584H2.247V69.5528C2.247 69.7737 2.42608 69.9528 2.647 69.9528H22.2871H23.9607H53.0841C53.305 69.9528 53.4841 69.7737 53.4841 69.5528V53.9584ZM24.9926 60.8669H30.9819V63.8616H24.9926V60.8669ZM39.9662 60.8669H33.9768V63.8616H39.9662V60.8669ZM13.3084 13.3586C15.1824 13.3586 16.7015 11.8395 16.7015 9.96548C16.7015 8.09151 15.1824 6.57235 13.3084 6.57235C11.4344 6.57235 9.91526 8.09151 9.91526 9.96548C9.91526 11.8395 11.4344 13.3586 13.3084 13.3586ZM13.3084 14.0586C15.569 14.0586 17.4015 12.226 17.4015 9.96548C17.4015 7.70491 15.569 5.87235 13.3084 5.87235C11.0478 5.87235 9.21526 7.70491 9.21526 9.96548C9.21526 12.226 11.0478 14.0586 13.3084 14.0586ZM21.9984 60.8669H16.009V63.8616H21.9984V60.8669ZM28.0432 13.3586C29.9172 13.3586 31.4364 11.8395 31.4364 9.96548C31.4364 8.09151 29.9172 6.57235 28.0432 6.57235C26.1693 6.57235 24.6501 8.09151 24.6501 9.96548C24.6501 11.8395 26.1693 13.3586 28.0432 13.3586ZM28.0432 14.0586C30.3038 14.0586 32.1364 12.226 32.1364 9.96548C32.1364 7.70491 30.3038 5.87235 28.0432 5.87235C25.7827 5.87235 23.9501 7.70491 23.9501 9.96548C23.9501 12.226 25.7827 14.0586 28.0432 14.0586ZM46.1716 9.96548C46.1716 11.8395 44.6525 13.3586 42.7785 13.3586C40.9045 13.3586 39.3854 11.8395 39.3854 9.96548C39.3854 8.09151 40.9045 6.57235 42.7785 6.57235C44.6525 6.57235 46.1716 8.09151 46.1716 9.96548ZM46.8716 9.96548C46.8716 12.226 45.0391 14.0586 42.7785 14.0586C40.5179 14.0586 38.6854 12.226 38.6854 9.96548C38.6854 7.70491 40.5179 5.87235 42.7785 5.87235C45.0391 5.87235 46.8716 7.70491 46.8716 9.96548ZM13.3084 31.3687C15.1824 31.3687 16.7015 29.8495 16.7015 27.9756C16.7015 26.1016 15.1824 24.5824 13.3084 24.5824C11.4344 24.5824 9.91526 26.1016 9.91526 27.9756C9.91526 29.8495 11.4344 31.3687 13.3084 31.3687ZM13.3084 32.0687C15.569 32.0687 17.4015 30.2361 17.4015 27.9756C17.4015 25.715 15.569 23.8824 13.3084 23.8824C11.0478 23.8824 9.21526 25.715 9.21526 27.9756C9.21526 30.2361 11.0478 32.0687 13.3084 32.0687ZM31.4364 27.9756C31.4364 29.8495 29.9172 31.3687 28.0432 31.3687C26.1693 31.3687 24.6501 29.8495 24.6501 27.9756C24.6501 26.1016 26.1693 24.5824 28.0432 24.5824C29.9172 24.5824 31.4364 26.1016 31.4364 27.9756ZM32.1364 27.9756C32.1364 30.2361 30.3038 32.0687 28.0432 32.0687C25.7827 32.0687 23.9501 30.2361 23.9501 27.9756C23.9501 25.715 25.7827 23.8824 28.0432 23.8824C30.3038 23.8824 32.1364 25.715 32.1364 27.9756ZM42.7785 31.3687C44.6525 31.3687 46.1716 29.8495 46.1716 27.9756C46.1716 26.1016 44.6525 24.5824 42.7785 24.5824C40.9045 24.5824 39.3854 26.1016 39.3854 27.9756C39.3854 29.8495 40.9045 31.3687 42.7785 31.3687ZM42.7785 32.0687C45.0391 32.0687 46.8716 30.2361 46.8716 27.9756C46.8716 25.715 45.0391 23.8824 42.7785 23.8824C40.5179 23.8824 38.6854 25.715 38.6854 27.9756C38.6854 30.2361 40.5179 32.0687 42.7785 32.0687ZM16.7015 45.9859C16.7015 47.8599 15.1824 49.379 13.3084 49.379C11.4344 49.379 9.91526 47.8599 9.91526 45.9859C9.91526 44.1119 11.4344 42.5928 13.3084 42.5928C15.1824 42.5928 16.7015 44.1119 16.7015 45.9859ZM17.4015 45.9859C17.4015 48.2465 15.569 50.079 13.3084 50.079C11.0478 50.079 9.21526 48.2465 9.21526 45.9859C9.21526 43.7253 11.0478 41.8928 13.3084 41.8928C15.569 41.8928 17.4015 43.7253 17.4015 45.9859ZM28.0432 49.379C29.9172 49.379 31.4364 47.8599 31.4364 45.9859C31.4364 44.1119 29.9172 42.5928 28.0432 42.5928C26.1693 42.5928 24.6501 44.1119 24.6501 45.9859C24.6501 47.8599 26.1693 49.379 28.0432 49.379ZM28.0432 50.079C30.3038 50.079 32.1364 48.2465 32.1364 45.9859C32.1364 43.7253 30.3038 41.8928 28.0432 41.8928C25.7827 41.8928 23.9501 43.7253 23.9501 45.9859C23.9501 48.2465 25.7827 50.079 28.0432 50.079ZM46.1716 45.9859C46.1716 47.8599 44.6525 49.379 42.7785 49.379C40.9045 49.379 39.3854 47.8599 39.3854 45.9859C39.3854 44.1119 40.9045 42.5928 42.7785 42.5928C44.6525 42.5928 46.1716 44.1119 46.1716 45.9859ZM46.8716 45.9859C46.8716 48.2465 45.0391 50.079 42.7785 50.079C40.5179 50.079 38.6854 48.2465 38.6854 45.9859C38.6854 43.7253 40.5179 41.8928 42.7785 41.8928C45.0391 41.8928 46.8716 43.7253 46.8716 45.9859Z" fill="#0048BB"/>
<path d="M2.247 18.3446H1.747V18.8446H2.247V18.3446ZM53.4841 18.3446V18.8446H53.9841V18.3446H53.4841ZM2.247 19.5446V19.0446H1.747V19.5446H2.247ZM53.4841 19.5446H53.9841V19.0446H53.4841V19.5446ZM2.247 35.5641H1.747V36.0641H2.247V35.5641ZM53.4841 35.5641V36.0641H53.9841V35.5641H53.4841ZM2.247 36.7641V36.2641H1.747V36.7641H2.247ZM53.4841 36.7641H53.9841V36.2641H53.4841V36.7641ZM2.247 52.7584H1.747V53.2584H2.247V52.7584ZM53.4841 52.7584V53.2584H53.9841V52.7584H53.4841ZM2.247 53.9584V53.4584H1.747V53.9584H2.247ZM53.4841 53.9584H53.9841V53.4584H53.4841V53.9584ZM30.9819 60.8669H31.4819V60.3669H30.9819V60.8669ZM24.9926 60.8669V60.3669H24.4926V60.8669H24.9926ZM30.9819 63.8616V64.3616H31.4819V63.8616H30.9819ZM24.9926 63.8616H24.4926V64.3616H24.9926V63.8616ZM33.9768 60.8669V60.3669H33.4768V60.8669H33.9768ZM39.9662 60.8669H40.4662V60.3669H39.9662V60.8669ZM33.9768 63.8616H33.4768V64.3616H33.9768V63.8616ZM39.9662 63.8616V64.3616H40.4662V63.8616H39.9662ZM16.009 60.8669V60.3669H15.509V60.8669H16.009ZM21.9984 60.8669H22.4984V60.3669H21.9984V60.8669ZM16.009 63.8616H15.509V64.3616H16.009V63.8616ZM21.9984 63.8616V64.3616H22.4984V63.8616H21.9984ZM2.647 0.547607C1.4872 0.547607 0.546997 1.48781 0.546997 2.64761H1.547C1.547 2.04009 2.03948 1.54761 2.647 1.54761V0.547607ZM22.2871 0.547607H2.647V1.54761H22.2871V0.547607ZM23.9607 0.547607H22.2871V1.54761H23.9607V0.547607ZM53.0841 0.547607H23.9607V1.54761H53.0841V0.547607ZM55.1841 2.64761C55.1841 1.48781 54.2439 0.547607 53.0841 0.547607V1.54761C53.6916 1.54761 54.1841 2.04009 54.1841 2.64761H55.1841ZM55.1841 18.9446V2.64761H54.1841V18.9446H55.1841ZM55.1841 36.1641V18.9446H54.1841V36.1641H55.1841ZM55.1841 53.3584V36.1641H54.1841V53.3584H55.1841ZM55.1841 69.5528V53.3584H54.1841V69.5528H55.1841ZM53.0841 71.6528C54.2439 71.6528 55.1841 70.7126 55.1841 69.5528H54.1841C54.1841 70.1603 53.6916 70.6528 53.0841 70.6528V71.6528ZM23.9607 71.6528H53.0841V70.6528H23.9607V71.6528ZM22.2871 71.6528H23.9607V70.6528H22.2871V71.6528ZM2.647 71.6528H22.2871V70.6528H2.647V71.6528ZM0.546997 69.5528C0.546997 70.7126 1.4872 71.6528 2.647 71.6528V70.6528C2.03948 70.6528 1.547 70.1603 1.547 69.5528H0.546997ZM0.546997 53.3584V69.5528H1.547V53.3584H0.546997ZM0.546997 36.1641V53.3584H1.547V36.1641H0.546997ZM0.546997 18.9446V36.1641H1.547V18.9446H0.546997ZM0.546997 2.64761V18.9446H1.547V2.64761H0.546997ZM2.747 2.64761C2.747 2.70284 2.70222 2.74761 2.647 2.74761V1.74761C2.14994 1.74761 1.747 2.15055 1.747 2.64761H2.747ZM2.747 18.3446V2.64761H1.747V18.3446H2.747ZM53.4841 17.8446H2.247V18.8446H53.4841V17.8446ZM52.9841 2.64761V18.3446H53.9841V2.64761H52.9841ZM53.0841 2.74761C53.0289 2.74761 52.9841 2.70283 52.9841 2.64761H53.9841C53.9841 2.15055 53.5812 1.74761 53.0841 1.74761V2.74761ZM23.9607 2.74761H53.0841V1.74761H23.9607V2.74761ZM22.2871 2.74761H23.9607V1.74761H22.2871V2.74761ZM2.647 2.74761H22.2871V1.74761H2.647V2.74761ZM2.247 20.0446H53.4841V19.0446H2.247V20.0446ZM2.747 35.5641V19.5446H1.747V35.5641H2.747ZM53.4841 35.0641H2.247V36.0641H53.4841V35.0641ZM52.9841 19.5446V35.5641H53.9841V19.5446H52.9841ZM2.247 37.2641H53.4841V36.2641H2.247V37.2641ZM2.747 52.7584V36.7641H1.747V52.7584H2.747ZM53.4841 52.2584H2.247V53.2584H53.4841V52.2584ZM52.9841 36.7641V52.7584H53.9841V36.7641H52.9841ZM2.247 54.4584H53.4841V53.4584H2.247V54.4584ZM2.747 69.5528V53.9584H1.747V69.5528H2.747ZM2.647 69.4528C2.70222 69.4528 2.747 69.4976 2.747 69.5528H1.747C1.747 70.0499 2.14995 70.4528 2.647 70.4528V69.4528ZM22.2871 69.4528H2.647V70.4528H22.2871V69.4528ZM23.9607 69.4528H22.2871V70.4528H23.9607V69.4528ZM53.0841 69.4528H23.9607V70.4528H53.0841V69.4528ZM52.9841 69.5528C52.9841 69.4976 53.0289 69.4528 53.0841 69.4528V70.4528C53.5812 70.4528 53.9841 70.0499 53.9841 69.5528H52.9841ZM52.9841 53.9584V69.5528H53.9841V53.9584H52.9841ZM30.9819 60.3669H24.9926V61.3669H30.9819V60.3669ZM31.4819 63.8616V60.8669H30.4819V63.8616H31.4819ZM24.9926 64.3616H30.9819V63.3616H24.9926V64.3616ZM24.4926 60.8669V63.8616H25.4926V60.8669H24.4926ZM33.9768 61.3669H39.9662V60.3669H33.9768V61.3669ZM34.4768 63.8616V60.8669H33.4768V63.8616H34.4768ZM39.9662 63.3616H33.9768V64.3616H39.9662V63.3616ZM39.4662 60.8669V63.8616H40.4662V60.8669H39.4662ZM16.2015 9.96548C16.2015 11.5633 14.9062 12.8586 13.3084 12.8586V13.8586C15.4585 13.8586 17.2015 12.1156 17.2015 9.96548H16.2015ZM13.3084 7.07235C14.9062 7.07235 16.2015 8.36765 16.2015 9.96548H17.2015C17.2015 7.81536 15.4585 6.07235 13.3084 6.07235V7.07235ZM10.4153 9.96548C10.4153 8.36765 11.7106 7.07235 13.3084 7.07235V6.07235C11.1583 6.07235 9.41526 7.81536 9.41526 9.96548H10.4153ZM13.3084 12.8586C11.7106 12.8586 10.4153 11.5633 10.4153 9.96548H9.41526C9.41526 12.1156 11.1583 13.8586 13.3084 13.8586V12.8586ZM16.9015 9.96548C16.9015 11.9499 15.2928 13.5586 13.3084 13.5586V14.5586C15.8451 14.5586 17.9015 12.5022 17.9015 9.96548H16.9015ZM13.3084 6.37235C15.2928 6.37235 16.9015 7.98105 16.9015 9.96548H17.9015C17.9015 7.42877 15.8451 5.37235 13.3084 5.37235V6.37235ZM9.71526 9.96548C9.71526 7.98105 11.324 6.37235 13.3084 6.37235V5.37235C10.7717 5.37235 8.71526 7.42877 8.71526 9.96548H9.71526ZM13.3084 13.5586C11.324 13.5586 9.71526 11.9499 9.71526 9.96548H8.71526C8.71526 12.5022 10.7717 14.5586 13.3084 14.5586V13.5586ZM16.009 61.3669H21.9984V60.3669H16.009V61.3669ZM16.509 63.8616V60.8669H15.509V63.8616H16.509ZM21.9984 63.3616H16.009V64.3616H21.9984V63.3616ZM21.4984 60.8669V63.8616H22.4984V60.8669H21.4984ZM30.9364 9.96548C30.9364 11.5633 29.6411 12.8586 28.0432 12.8586V13.8586C30.1934 13.8586 31.9364 12.1156 31.9364 9.96548H30.9364ZM28.0432 7.07235C29.6411 7.07235 30.9364 8.36765 30.9364 9.96548H31.9364C31.9364 7.81536 30.1934 6.07235 28.0432 6.07235V7.07235ZM25.1501 9.96548C25.1501 8.36765 26.4454 7.07235 28.0432 7.07235V6.07235C25.8931 6.07235 24.1501 7.81536 24.1501 9.96548H25.1501ZM28.0432 12.8586C26.4454 12.8586 25.1501 11.5633 25.1501 9.96548H24.1501C24.1501 12.1156 25.8931 13.8586 28.0432 13.8586V12.8586ZM31.6364 9.96548C31.6364 11.9499 30.0277 13.5586 28.0432 13.5586V14.5586C30.58 14.5586 32.6364 12.5022 32.6364 9.96548H31.6364ZM28.0432 6.37235C30.0277 6.37235 31.6364 7.98105 31.6364 9.96548H32.6364C32.6364 7.42877 30.58 5.37235 28.0432 5.37235V6.37235ZM24.4501 9.96548C24.4501 7.98105 26.0588 6.37235 28.0432 6.37235V5.37235C25.5065 5.37235 23.4501 7.42877 23.4501 9.96548H24.4501ZM28.0432 13.5586C26.0588 13.5586 24.4501 11.9499 24.4501 9.96548H23.4501C23.4501 12.5022 25.5065 14.5586 28.0432 14.5586V13.5586ZM42.7785 13.8586C44.9286 13.8586 46.6716 12.1156 46.6716 9.96548H45.6716C45.6716 11.5633 44.3763 12.8586 42.7785 12.8586V13.8586ZM38.8854 9.96548C38.8854 12.1156 40.6284 13.8586 42.7785 13.8586V12.8586C41.1806 12.8586 39.8854 11.5633 39.8854 9.96548H38.8854ZM42.7785 6.07235C40.6284 6.07235 38.8854 7.81536 38.8854 9.96548H39.8854C39.8854 8.36765 41.1806 7.07235 42.7785 7.07235V6.07235ZM46.6716 9.96548C46.6716 7.81536 44.9286 6.07235 42.7785 6.07235V7.07235C44.3763 7.07235 45.6716 8.36765 45.6716 9.96548H46.6716ZM42.7785 14.5586C45.3152 14.5586 47.3716 12.5022 47.3716 9.96548H46.3716C46.3716 11.9499 44.7629 13.5586 42.7785 13.5586V14.5586ZM38.1854 9.96548C38.1854 12.5022 40.2418 14.5586 42.7785 14.5586V13.5586C40.794 13.5586 39.1854 11.9499 39.1854 9.96548H38.1854ZM42.7785 5.37235C40.2418 5.37235 38.1854 7.42877 38.1854 9.96548H39.1854C39.1854 7.98105 40.794 6.37235 42.7785 6.37235V5.37235ZM47.3716 9.96548C47.3716 7.42877 45.3152 5.37235 42.7785 5.37235V6.37235C44.7629 6.37235 46.3716 7.98105 46.3716 9.96548H47.3716ZM16.2015 27.9756C16.2015 29.5734 14.9062 30.8687 13.3084 30.8687V31.8687C15.4585 31.8687 17.2015 30.1257 17.2015 27.9756H16.2015ZM13.3084 25.0824C14.9062 25.0824 16.2015 26.3777 16.2015 27.9756H17.2015C17.2015 25.8255 15.4585 24.0824 13.3084 24.0824V25.0824ZM10.4153 27.9756C10.4153 26.3777 11.7106 25.0824 13.3084 25.0824V24.0824C11.1583 24.0824 9.41526 25.8255 9.41526 27.9756H10.4153ZM13.3084 30.8687C11.7106 30.8687 10.4153 29.5734 10.4153 27.9756H9.41526C9.41526 30.1257 11.1583 31.8687 13.3084 31.8687V30.8687ZM16.9015 27.9756C16.9015 29.96 15.2928 31.5687 13.3084 31.5687V32.5687C15.8451 32.5687 17.9015 30.5123 17.9015 27.9756H16.9015ZM13.3084 24.3824C15.2928 24.3824 16.9015 25.9911 16.9015 27.9756H17.9015C17.9015 25.4389 15.8451 23.3824 13.3084 23.3824V24.3824ZM9.71526 27.9756C9.71526 25.9911 11.324 24.3824 13.3084 24.3824V23.3824C10.7717 23.3824 8.71526 25.4389 8.71526 27.9756H9.71526ZM13.3084 31.5687C11.324 31.5687 9.71526 29.96 9.71526 27.9756H8.71526C8.71526 30.5123 10.7717 32.5687 13.3084 32.5687V31.5687ZM28.0432 31.8687C30.1934 31.8687 31.9364 30.1257 31.9364 27.9756H30.9364C30.9364 29.5734 29.6411 30.8687 28.0432 30.8687V31.8687ZM24.1501 27.9756C24.1501 30.1257 25.8931 31.8687 28.0432 31.8687V30.8687C26.4454 30.8687 25.1501 29.5734 25.1501 27.9756H24.1501ZM28.0432 24.0824C25.8931 24.0824 24.1501 25.8255 24.1501 27.9756H25.1501C25.1501 26.3777 26.4454 25.0824 28.0432 25.0824V24.0824ZM31.9364 27.9756C31.9364 25.8255 30.1934 24.0824 28.0432 24.0824V25.0824C29.6411 25.0824 30.9364 26.3777 30.9364 27.9756H31.9364ZM28.0432 32.5687C30.58 32.5687 32.6364 30.5123 32.6364 27.9756H31.6364C31.6364 29.96 30.0277 31.5687 28.0432 31.5687V32.5687ZM23.4501 27.9756C23.4501 30.5123 25.5065 32.5687 28.0432 32.5687V31.5687C26.0588 31.5687 24.4501 29.96 24.4501 27.9756H23.4501ZM28.0432 23.3824C25.5065 23.3824 23.4501 25.4389 23.4501 27.9756H24.4501C24.4501 25.9911 26.0588 24.3824 28.0432 24.3824V23.3824ZM32.6364 27.9756C32.6364 25.4389 30.58 23.3824 28.0432 23.3824V24.3824C30.0277 24.3824 31.6364 25.9911 31.6364 27.9756H32.6364ZM45.6716 27.9756C45.6716 29.5734 44.3763 30.8687 42.7785 30.8687V31.8687C44.9286 31.8687 46.6716 30.1257 46.6716 27.9756H45.6716ZM42.7785 25.0824C44.3763 25.0824 45.6716 26.3777 45.6716 27.9756H46.6716C46.6716 25.8255 44.9286 24.0824 42.7785 24.0824V25.0824ZM39.8854 27.9756C39.8854 26.3777 41.1806 25.0824 42.7785 25.0824V24.0824C40.6284 24.0824 38.8854 25.8255 38.8854 27.9756H39.8854ZM42.7785 30.8687C41.1806 30.8687 39.8854 29.5734 39.8854 27.9756H38.8854C38.8854 30.1257 40.6284 31.8687 42.7785 31.8687V30.8687ZM46.3716 27.9756C46.3716 29.96 44.7629 31.5687 42.7785 31.5687V32.5687C45.3152 32.5687 47.3716 30.5123 47.3716 27.9756H46.3716ZM42.7785 24.3824C44.7629 24.3824 46.3716 25.9911 46.3716 27.9756H47.3716C47.3716 25.4389 45.3152 23.3824 42.7785 23.3824V24.3824ZM39.1854 27.9756C39.1854 25.9911 40.794 24.3824 42.7785 24.3824V23.3824C40.2418 23.3824 38.1854 25.4389 38.1854 27.9756H39.1854ZM42.7785 31.5687C40.794 31.5687 39.1854 29.96 39.1854 27.9756H38.1854C38.1854 30.5123 40.2418 32.5687 42.7785 32.5687V31.5687ZM13.3084 49.879C15.4585 49.879 17.2015 48.136 17.2015 45.9859H16.2015C16.2015 47.5837 14.9062 48.879 13.3084 48.879V49.879ZM9.41526 45.9859C9.41526 48.136 11.1583 49.879 13.3084 49.879V48.879C11.7106 48.879 10.4153 47.5837 10.4153 45.9859H9.41526ZM13.3084 42.0928C11.1583 42.0928 9.41526 43.8358 9.41526 45.9859H10.4153C10.4153 44.3881 11.7106 43.0928 13.3084 43.0928V42.0928ZM17.2015 45.9859C17.2015 43.8358 15.4585 42.0928 13.3084 42.0928V43.0928C14.9062 43.0928 16.2015 44.3881 16.2015 45.9859H17.2015ZM13.3084 50.579C15.8451 50.579 17.9015 48.5226 17.9015 45.9859H16.9015C16.9015 47.9703 15.2928 49.579 13.3084 49.579V50.579ZM8.71526 45.9859C8.71526 48.5226 10.7717 50.579 13.3084 50.579V49.579C11.324 49.579 9.71526 47.9703 9.71526 45.9859H8.71526ZM13.3084 41.3928C10.7717 41.3928 8.71526 43.4492 8.71526 45.9859H9.71526C9.71526 44.0015 11.324 42.3928 13.3084 42.3928V41.3928ZM17.9015 45.9859C17.9015 43.4492 15.8451 41.3928 13.3084 41.3928V42.3928C15.2928 42.3928 16.9015 44.0015 16.9015 45.9859H17.9015ZM30.9364 45.9859C30.9364 47.5837 29.6411 48.879 28.0432 48.879V49.879C30.1934 49.879 31.9364 48.136 31.9364 45.9859H30.9364ZM28.0432 43.0928C29.6411 43.0928 30.9364 44.3881 30.9364 45.9859H31.9364C31.9364 43.8358 30.1934 42.0928 28.0432 42.0928V43.0928ZM25.1501 45.9859C25.1501 44.3881 26.4454 43.0928 28.0432 43.0928V42.0928C25.8931 42.0928 24.1501 43.8358 24.1501 45.9859H25.1501ZM28.0432 48.879C26.4454 48.879 25.1501 47.5837 25.1501 45.9859H24.1501C24.1501 48.136 25.8931 49.879 28.0432 49.879V48.879ZM31.6364 45.9859C31.6364 47.9703 30.0277 49.579 28.0432 49.579V50.579C30.58 50.579 32.6364 48.5226 32.6364 45.9859H31.6364ZM28.0432 42.3928C30.0277 42.3928 31.6364 44.0015 31.6364 45.9859H32.6364C32.6364 43.4492 30.58 41.3928 28.0432 41.3928V42.3928ZM24.4501 45.9859C24.4501 44.0015 26.0588 42.3928 28.0432 42.3928V41.3928C25.5065 41.3928 23.4501 43.4492 23.4501 45.9859H24.4501ZM28.0432 49.579C26.0588 49.579 24.4501 47.9703 24.4501 45.9859H23.4501C23.4501 48.5226 25.5065 50.579 28.0432 50.579V49.579ZM42.7785 49.879C44.9286 49.879 46.6716 48.136 46.6716 45.9859H45.6716C45.6716 47.5837 44.3763 48.879 42.7785 48.879V49.879ZM38.8854 45.9859C38.8854 48.136 40.6284 49.879 42.7785 49.879V48.879C41.1806 48.879 39.8854 47.5837 39.8854 45.9859H38.8854ZM42.7785 42.0928C40.6284 42.0928 38.8854 43.8358 38.8854 45.9859H39.8854C39.8854 44.3881 41.1806 43.0928 42.7785 43.0928V42.0928ZM46.6716 45.9859C46.6716 43.8358 44.9286 42.0928 42.7785 42.0928V43.0928C44.3763 43.0928 45.6716 44.3881 45.6716 45.9859H46.6716ZM42.7785 50.579C45.3152 50.579 47.3716 48.5226 47.3716 45.9859H46.3716C46.3716 47.9703 44.7629 49.579 42.7785 49.579V50.579ZM38.1854 45.9859C38.1854 48.5226 40.2418 50.579 42.7785 50.579V49.579C40.794 49.579 39.1854 47.9703 39.1854 45.9859H38.1854ZM42.7785 41.3928C40.2418 41.3928 38.1854 43.4492 38.1854 45.9859H39.1854C39.1854 44.0015 40.794 42.3928 42.7785 42.3928V41.3928ZM47.3716 45.9859C47.3716 43.4492 45.3152 41.3928 42.7785 41.3928V42.3928C44.7629 42.3928 46.3716 44.0015 46.3716 45.9859H47.3716Z" fill="#0048BB"/>
</svg>
