<svg width="70" height="70" viewBox="0 0 70 70" fill="none" xmlns="http://www.w3.org/2000/svg">
<rect width="70" height="70" rx="7" fill="#FFCD00"/>
<path fill-rule="evenodd" clip-rule="evenodd" d="M18.7781 13.4176C18.7781 12.534 19.4944 11.8176 20.3781 11.8176H31.9847H33.0068H50.4056C51.2893 11.8176 52.0056 12.534 52.0056 13.4176V22.9823V33.4996V44.0016V53.5036C52.0056 54.3872 51.2893 55.1036 50.4056 55.1036H33.0068H31.9847H20.3781C19.4944 55.1036 18.7781 54.3872 18.7781 53.5036V44.0016V33.4996V22.9823V13.4176ZM20.3781 13.0176C20.1572 13.0176 19.9781 13.1967 19.9781 13.4176V22.3823H50.8056V13.4176C50.8056 13.1967 50.6265 13.0176 50.4056 13.0176H33.0068H31.9847H20.3781ZM50.8056 23.5823H19.9781V32.8996H50.8056V23.5823ZM50.8056 34.0996H19.9781V43.4016H50.8056V34.0996ZM50.8056 44.6016H19.9781V53.5036C19.9781 53.7245 20.1572 53.9036 20.3781 53.9036H31.9847H33.0068H50.4056C50.6265 53.9036 50.8056 53.7245 50.8056 53.5036V44.6016ZM33.6369 48.5893H37.2951V50.4184H33.6369V48.5893ZM42.7823 48.5893H39.1241V50.4184H42.7823V48.5893ZM26.5 19.3C27.4941 19.3 28.3 18.4941 28.3 17.5C28.3 16.5059 27.4941 15.7 26.5 15.7C25.5059 15.7 24.7 16.5059 24.7 17.5C24.7 18.4941 25.5059 19.3 26.5 19.3ZM26.5 20C27.8807 20 29 18.8807 29 17.5C29 16.1193 27.8807 15 26.5 15C25.1193 15 24 16.1193 24 17.5C24 18.8807 25.1193 20 26.5 20ZM31.8077 48.5893H28.1495V50.4184H31.8077V48.5893ZM35.5 19.3C36.4941 19.3 37.3 18.4941 37.3 17.5C37.3 16.5059 36.4941 15.7 35.5 15.7C34.5059 15.7 33.7 16.5059 33.7 17.5C33.7 18.4941 34.5059 19.3 35.5 19.3ZM35.5 20C36.8807 20 38 18.8807 38 17.5C38 16.1193 36.8807 15 35.5 15C34.1193 15 33 16.1193 33 17.5C33 18.8807 34.1193 20 35.5 20ZM46.3 17.5C46.3 18.4941 45.4941 19.3 44.5 19.3C43.5059 19.3 42.7 18.4941 42.7 17.5C42.7 16.5059 43.5059 15.7 44.5 15.7C45.4941 15.7 46.3 16.5059 46.3 17.5ZM47 17.5C47 18.8807 45.8807 20 44.5 20C43.1193 20 42 18.8807 42 17.5C42 16.1193 43.1193 15 44.5 15C45.8807 15 47 16.1193 47 17.5ZM26.5 30.3C27.4941 30.3 28.3 29.4941 28.3 28.5C28.3 27.5059 27.4941 26.7 26.5 26.7C25.5059 26.7 24.7 27.5059 24.7 28.5C24.7 29.4941 25.5059 30.3 26.5 30.3ZM26.5 31C27.8807 31 29 29.8807 29 28.5C29 27.1193 27.8807 26 26.5 26C25.1193 26 24 27.1193 24 28.5C24 29.8807 25.1193 31 26.5 31ZM37.3 28.5C37.3 29.4941 36.4941 30.3 35.5 30.3C34.5059 30.3 33.7 29.4941 33.7 28.5C33.7 27.5059 34.5059 26.7 35.5 26.7C36.4941 26.7 37.3 27.5059 37.3 28.5ZM38 28.5C38 29.8807 36.8807 31 35.5 31C34.1193 31 33 29.8807 33 28.5C33 27.1193 34.1193 26 35.5 26C36.8807 26 38 27.1193 38 28.5ZM44.5 30.3C45.4941 30.3 46.3 29.4941 46.3 28.5C46.3 27.5059 45.4941 26.7 44.5 26.7C43.5059 26.7 42.7 27.5059 42.7 28.5C42.7 29.4941 43.5059 30.3 44.5 30.3ZM44.5 31C45.8807 31 47 29.8807 47 28.5C47 27.1193 45.8807 26 44.5 26C43.1193 26 42 27.1193 42 28.5C42 29.8807 43.1193 31 44.5 31ZM28.3 39.5C28.3 40.4941 27.4941 41.3 26.5 41.3C25.5059 41.3 24.7 40.4941 24.7 39.5C24.7 38.5059 25.5059 37.7 26.5 37.7C27.4941 37.7 28.3 38.5059 28.3 39.5ZM29 39.5C29 40.8807 27.8807 42 26.5 42C25.1193 42 24 40.8807 24 39.5C24 38.1193 25.1193 37 26.5 37C27.8807 37 29 38.1193 29 39.5ZM35.5 41.3C36.4941 41.3 37.3 40.4941 37.3 39.5C37.3 38.5059 36.4941 37.7 35.5 37.7C34.5059 37.7 33.7 38.5059 33.7 39.5C33.7 40.4941 34.5059 41.3 35.5 41.3ZM35.5 42C36.8807 42 38 40.8807 38 39.5C38 38.1193 36.8807 37 35.5 37C34.1193 37 33 38.1193 33 39.5C33 40.8807 34.1193 42 35.5 42ZM46.3 39.5C46.3 40.4941 45.4941 41.3 44.5 41.3C43.5059 41.3 42.7 40.4941 42.7 39.5C42.7 38.5059 43.5059 37.7 44.5 37.7C45.4941 37.7 46.3 38.5059 46.3 39.5ZM47 39.5C47 40.8807 45.8807 42 44.5 42C43.1193 42 42 40.8807 42 39.5C42 38.1193 43.1193 37 44.5 37C45.8807 37 47 38.1193 47 39.5Z" fill="#0048BB"/>
</svg>
